<svg width="325" height="45" viewBox="0 0 325 45" fill="none" xmlns="http://www.w3.org/2000/svg">
<rect x="0.5" y="0.5" width="324" height="44" rx="22" stroke="#E2DBD4"/>
<path d="M36.645 28L35.5024 25.0547H31.7827L30.6465 28H29.5547L33.1855 18.6816H34.1567L37.7622 28H36.645ZM35.1787 24.0962L34.0933 21.1699C34.0679 21.0938 34.0256 20.9689 33.9663 20.7954C33.9113 20.6219 33.8542 20.4421 33.7949 20.2559C33.7357 20.0697 33.687 19.9194 33.6489 19.8052C33.6066 19.9787 33.5601 20.1522 33.5093 20.3257C33.4627 20.495 33.4162 20.6536 33.3696 20.8018C33.3231 20.9456 33.2829 21.0684 33.249 21.1699L32.1445 24.0962H35.1787ZM41.6787 28.127C41.0524 28.127 40.5002 27.9979 40.022 27.7397C39.5438 27.4816 39.1714 27.0881 38.9048 26.5591C38.6382 26.0301 38.5049 25.3636 38.5049 24.5596C38.5049 23.7174 38.6445 23.0298 38.9238 22.4966C39.2074 21.9591 39.5967 21.5614 40.0918 21.3032C40.5869 21.0451 41.1497 20.916 41.7803 20.916C42.1273 20.916 42.4616 20.952 42.7832 21.0239C43.109 21.0916 43.3757 21.1784 43.583 21.2842L43.2656 22.1665C43.054 22.0819 42.8086 22.0057 42.5293 21.938C42.2542 21.8703 41.9961 21.8364 41.7549 21.8364C41.2725 21.8364 40.8704 21.9401 40.5488 22.1475C40.2314 22.3548 39.9924 22.6595 39.8315 23.0615C39.675 23.4635 39.5967 23.9587 39.5967 24.5469C39.5967 25.1097 39.6729 25.59 39.8252 25.9878C39.9818 26.3856 40.2124 26.6903 40.5171 26.9019C40.826 27.1092 41.2111 27.2129 41.6724 27.2129C42.0405 27.2129 42.3727 27.1748 42.6689 27.0986C42.9652 27.0182 43.2339 26.9251 43.4751 26.8193V27.7588C43.2424 27.8773 42.9821 27.9683 42.6943 28.0317C42.4108 28.0952 42.0723 28.127 41.6787 28.127ZM47.8042 20.916C48.3966 20.916 48.9045 21.0472 49.3276 21.3096C49.7508 21.5719 50.0745 21.9401 50.2988 22.4141C50.5231 22.8838 50.6353 23.4339 50.6353 24.0645V24.7183H45.8301C45.8428 25.535 46.0459 26.1571 46.4395 26.5845C46.833 27.0119 47.3874 27.2256 48.1025 27.2256C48.5426 27.2256 48.932 27.1854 49.2705 27.105C49.609 27.0246 49.9603 26.9061 50.3242 26.7495V27.6763C49.973 27.8328 49.6239 27.9471 49.2769 28.019C48.9341 28.091 48.5278 28.127 48.0581 28.127C47.3895 28.127 46.8055 27.9915 46.3062 27.7207C45.811 27.4456 45.4259 27.0436 45.1509 26.5146C44.8758 25.9857 44.7383 25.3382 44.7383 24.5723C44.7383 23.8232 44.8631 23.1758 45.1128 22.6299C45.3667 22.0798 45.7222 21.6566 46.1792 21.3604C46.6405 21.0641 47.1821 20.916 47.8042 20.916ZM47.7915 21.7793C47.2287 21.7793 46.7801 21.9634 46.4458 22.3315C46.1115 22.6997 45.9126 23.2139 45.8491 23.874H49.5308C49.5265 23.4593 49.4609 23.0954 49.334 22.7822C49.2113 22.4648 49.0229 22.2194 48.769 22.0459C48.5151 21.8682 48.1893 21.7793 47.7915 21.7793ZM56.9258 26.0957C56.9258 26.54 56.8136 26.9146 56.5894 27.2192C56.3693 27.5197 56.0519 27.7461 55.6372 27.8984C55.2267 28.0508 54.7358 28.127 54.1646 28.127C53.6779 28.127 53.2568 28.0889 52.9014 28.0127C52.5459 27.9365 52.2349 27.8286 51.9683 27.689V26.7178C52.2518 26.8574 52.5903 26.9844 52.9839 27.0986C53.3774 27.2129 53.7795 27.27 54.1899 27.27C54.7909 27.27 55.2267 27.1727 55.4976 26.978C55.7684 26.7834 55.9038 26.5189 55.9038 26.1846C55.9038 25.9941 55.8488 25.827 55.7388 25.6831C55.633 25.535 55.4531 25.3932 55.1992 25.2578C54.9453 25.1182 54.5941 24.9658 54.1455 24.8008C53.7012 24.6315 53.3161 24.4644 52.9902 24.2993C52.6686 24.13 52.4189 23.9248 52.2412 23.6836C52.0677 23.4424 51.981 23.1292 51.981 22.7441C51.981 22.1559 52.2179 21.7052 52.6919 21.3921C53.1701 21.0747 53.7964 20.916 54.5708 20.916C54.9897 20.916 55.3812 20.9583 55.7451 21.043C56.1133 21.1234 56.4561 21.2334 56.7734 21.373L56.418 22.2173C56.1302 22.0946 55.8234 21.9909 55.4976 21.9062C55.1717 21.8216 54.8395 21.7793 54.501 21.7793C54.0143 21.7793 53.6398 21.8597 53.3774 22.0205C53.1193 22.1813 52.9902 22.4014 52.9902 22.6807C52.9902 22.8965 53.0495 23.0742 53.168 23.2139C53.2907 23.3535 53.4854 23.4847 53.752 23.6074C54.0186 23.7301 54.3698 23.874 54.8057 24.0391C55.2415 24.1999 55.6182 24.367 55.9355 24.5405C56.2529 24.7098 56.4963 24.9172 56.6655 25.1626C56.839 25.4038 56.9258 25.7148 56.9258 26.0957ZM63.1211 26.0957C63.1211 26.54 63.009 26.9146 62.7847 27.2192C62.5646 27.5197 62.2472 27.7461 61.8325 27.8984C61.422 28.0508 60.9312 28.127 60.3599 28.127C59.8732 28.127 59.4521 28.0889 59.0967 28.0127C58.7412 27.9365 58.4302 27.8286 58.1636 27.689V26.7178C58.4471 26.8574 58.7856 26.9844 59.1792 27.0986C59.5728 27.2129 59.9748 27.27 60.3853 27.27C60.9862 27.27 61.422 27.1727 61.6929 26.978C61.9637 26.7834 62.0991 26.5189 62.0991 26.1846C62.0991 25.9941 62.0441 25.827 61.9341 25.6831C61.8283 25.535 61.6484 25.3932 61.3945 25.2578C61.1406 25.1182 60.7894 24.9658 60.3408 24.8008C59.8965 24.6315 59.5114 24.4644 59.1855 24.2993C58.8639 24.13 58.6143 23.9248 58.4365 23.6836C58.263 23.4424 58.1763 23.1292 58.1763 22.7441C58.1763 22.1559 58.4132 21.7052 58.8872 21.3921C59.3654 21.0747 59.9917 20.916 60.7661 20.916C61.1851 20.916 61.5765 20.9583 61.9404 21.043C62.3086 21.1234 62.6514 21.2334 62.9688 21.373L62.6133 22.2173C62.3255 22.0946 62.0187 21.9909 61.6929 21.9062C61.367 21.8216 61.0348 21.7793 60.6963 21.7793C60.2096 21.7793 59.8351 21.8597 59.5728 22.0205C59.3146 22.1813 59.1855 22.4014 59.1855 22.6807C59.1855 22.8965 59.2448 23.0742 59.3633 23.2139C59.486 23.3535 59.6807 23.4847 59.9473 23.6074C60.2139 23.7301 60.5651 23.874 61.001 24.0391C61.4368 24.1999 61.8135 24.367 62.1309 24.5405C62.4482 24.7098 62.6916 24.9172 62.8608 25.1626C63.0343 25.4038 63.1211 25.7148 63.1211 26.0957ZM67.4185 20.9287C68.2479 20.9287 68.8636 21.1149 69.2656 21.4873C69.6676 21.8597 69.8687 22.4543 69.8687 23.271V28H69.1006L68.8975 26.9717H68.8467C68.652 27.2256 68.4489 27.4393 68.2373 27.6128C68.0257 27.7821 67.7803 27.9111 67.501 28C67.2259 28.0846 66.8874 28.127 66.4854 28.127C66.0622 28.127 65.6855 28.0529 65.3555 27.9048C65.0296 27.7567 64.7715 27.5324 64.5811 27.2319C64.3949 26.9315 64.3018 26.5506 64.3018 26.0894C64.3018 25.3953 64.5768 24.8621 65.127 24.4897C65.6771 24.1174 66.515 23.9142 67.6406 23.8804L68.8403 23.8296V23.4043C68.8403 22.8034 68.7113 22.3823 68.4531 22.1411C68.195 21.8999 67.8311 21.7793 67.3613 21.7793C66.9974 21.7793 66.6504 21.8322 66.3203 21.938C65.9902 22.0438 65.6771 22.1686 65.3809 22.3125L65.0571 21.5127C65.3703 21.3519 65.73 21.2144 66.1362 21.1001C66.5425 20.9858 66.9699 20.9287 67.4185 20.9287ZM68.8276 24.5723L67.7676 24.6167C66.9001 24.6506 66.2886 24.7923 65.9331 25.042C65.5776 25.2917 65.3999 25.645 65.3999 26.1021C65.3999 26.4998 65.5205 26.7939 65.7617 26.9844C66.0029 27.1748 66.3224 27.27 66.7202 27.27C67.3381 27.27 67.8438 27.0986 68.2373 26.7559C68.6309 26.4131 68.8276 25.8989 68.8276 25.2134V24.5723ZM75.2007 20.916C75.3403 20.916 75.4863 20.9245 75.6387 20.9414C75.791 20.9541 75.9264 20.9731 76.0449 20.9985L75.9116 21.9761C75.7974 21.9465 75.6704 21.9232 75.5308 21.9062C75.3911 21.8893 75.2599 21.8809 75.1372 21.8809C74.8579 21.8809 74.5934 21.938 74.3438 22.0522C74.0983 22.1623 73.8825 22.3231 73.6963 22.5347C73.5101 22.742 73.3641 22.9938 73.2583 23.29C73.1525 23.582 73.0996 23.9079 73.0996 24.2676V28H72.0396V21.043H72.9155L73.0298 22.3252H73.0742C73.2181 22.0671 73.3916 21.8322 73.5947 21.6206C73.7979 21.4048 74.0327 21.2334 74.2993 21.1064C74.5701 20.9795 74.8706 20.916 75.2007 20.916ZM86.7344 24.5088C86.7344 25.0801 86.6603 25.59 86.5122 26.0386C86.3641 26.4871 86.1504 26.8659 85.8711 27.1748C85.5918 27.4837 85.2533 27.7207 84.8555 27.8857C84.4619 28.0465 84.0155 28.127 83.5161 28.127C83.0506 28.127 82.6232 28.0465 82.2339 27.8857C81.8488 27.7207 81.5145 27.4837 81.231 27.1748C80.9517 26.8659 80.7337 26.4871 80.5771 26.0386C80.4248 25.59 80.3486 25.0801 80.3486 24.5088C80.3486 23.7471 80.4777 23.0996 80.7358 22.5664C80.994 22.029 81.3621 21.6206 81.8403 21.3413C82.3228 21.0578 82.8962 20.916 83.5605 20.916C84.1953 20.916 84.7497 21.0578 85.2236 21.3413C85.7018 21.6248 86.0721 22.0353 86.3345 22.5728C86.6011 23.106 86.7344 23.7513 86.7344 24.5088ZM81.4404 24.5088C81.4404 25.0674 81.5145 25.5519 81.6626 25.9624C81.8107 26.3729 82.0392 26.6903 82.3481 26.9146C82.6571 27.1388 83.0549 27.251 83.5415 27.251C84.0239 27.251 84.4196 27.1388 84.7285 26.9146C85.0417 26.6903 85.2723 26.3729 85.4204 25.9624C85.5685 25.5519 85.6426 25.0674 85.6426 24.5088C85.6426 23.9544 85.5685 23.4762 85.4204 23.0742C85.2723 22.668 85.0438 22.3548 84.7349 22.1348C84.4259 21.9147 84.026 21.8047 83.5352 21.8047C82.8115 21.8047 82.2804 22.0438 81.9419 22.522C81.6076 23.0002 81.4404 23.6624 81.4404 24.5088ZM96.4336 26.0957C96.4336 26.54 96.3215 26.9146 96.0972 27.2192C95.8771 27.5197 95.5597 27.7461 95.145 27.8984C94.7345 28.0508 94.2437 28.127 93.6724 28.127C93.1857 28.127 92.7646 28.0889 92.4092 28.0127C92.0537 27.9365 91.7427 27.8286 91.4761 27.689V26.7178C91.7596 26.8574 92.0981 26.9844 92.4917 27.0986C92.8853 27.2129 93.2873 27.27 93.6978 27.27C94.2987 27.27 94.7345 27.1727 95.0054 26.978C95.2762 26.7834 95.4116 26.5189 95.4116 26.1846C95.4116 25.9941 95.3566 25.827 95.2466 25.6831C95.1408 25.535 94.9609 25.3932 94.707 25.2578C94.4531 25.1182 94.1019 24.9658 93.6533 24.8008C93.209 24.6315 92.8239 24.4644 92.498 24.2993C92.1764 24.13 91.9268 23.9248 91.749 23.6836C91.5755 23.4424 91.4888 23.1292 91.4888 22.7441C91.4888 22.1559 91.7257 21.7052 92.1997 21.3921C92.6779 21.0747 93.3042 20.916 94.0786 20.916C94.4976 20.916 94.889 20.9583 95.2529 21.043C95.6211 21.1234 95.9639 21.2334 96.2812 21.373L95.9258 22.2173C95.638 22.0946 95.3312 21.9909 95.0054 21.9062C94.6795 21.8216 94.3473 21.7793 94.0088 21.7793C93.5221 21.7793 93.1476 21.8597 92.8853 22.0205C92.6271 22.1813 92.498 22.4014 92.498 22.6807C92.498 22.8965 92.5573 23.0742 92.6758 23.2139C92.7985 23.3535 92.9932 23.4847 93.2598 23.6074C93.5264 23.7301 93.8776 23.874 94.3135 24.0391C94.7493 24.1999 95.126 24.367 95.4434 24.5405C95.7607 24.7098 96.0041 24.9172 96.1733 25.1626C96.3468 25.4038 96.4336 25.7148 96.4336 26.0957ZM100.807 20.916C101.4 20.916 101.907 21.0472 102.331 21.3096C102.754 21.5719 103.077 21.9401 103.302 22.4141C103.526 22.8838 103.638 23.4339 103.638 24.0645V24.7183H98.833C98.8457 25.535 99.0488 26.1571 99.4424 26.5845C99.8359 27.0119 100.39 27.2256 101.105 27.2256C101.546 27.2256 101.935 27.1854 102.273 27.105C102.612 27.0246 102.963 26.9061 103.327 26.7495V27.6763C102.976 27.8328 102.627 27.9471 102.28 28.019C101.937 28.091 101.531 28.127 101.061 28.127C100.392 28.127 99.8084 27.9915 99.3091 27.7207C98.814 27.4456 98.4289 27.0436 98.1538 26.5146C97.8787 25.9857 97.7412 25.3382 97.7412 24.5723C97.7412 23.8232 97.866 23.1758 98.1157 22.6299C98.3696 22.0798 98.7251 21.6566 99.1821 21.3604C99.6434 21.0641 100.185 20.916 100.807 20.916ZM100.794 21.7793C100.232 21.7793 99.783 21.9634 99.4487 22.3315C99.1144 22.6997 98.9155 23.2139 98.8521 23.874H102.534C102.529 23.4593 102.464 23.0954 102.337 22.7822C102.214 22.4648 102.026 22.2194 101.772 22.0459C101.518 21.8682 101.192 21.7793 100.794 21.7793ZM108.589 20.916C108.729 20.916 108.875 20.9245 109.027 20.9414C109.18 20.9541 109.315 20.9731 109.434 20.9985L109.3 21.9761C109.186 21.9465 109.059 21.9232 108.919 21.9062C108.78 21.8893 108.649 21.8809 108.526 21.8809C108.247 21.8809 107.982 21.938 107.732 22.0522C107.487 22.1623 107.271 22.3231 107.085 22.5347C106.899 22.742 106.753 22.9938 106.647 23.29C106.541 23.582 106.488 23.9079 106.488 24.2676V28H105.428V21.043H106.304L106.418 22.3252H106.463C106.607 22.0671 106.78 21.8322 106.983 21.6206C107.187 21.4048 107.421 21.2334 107.688 21.1064C107.959 20.9795 108.259 20.916 108.589 20.916ZM112.277 28L109.637 21.043H110.767L112.296 25.2515C112.402 25.5392 112.51 25.8566 112.62 26.2036C112.73 26.5506 112.806 26.8299 112.849 27.0415H112.893C112.944 26.8299 113.028 26.5506 113.147 26.2036C113.265 25.8524 113.373 25.535 113.471 25.2515L115 21.043H116.13L113.483 28H112.277ZM118.301 21.043V28H117.248V21.043H118.301ZM117.787 18.4404C117.961 18.4404 118.109 18.4976 118.231 18.6118C118.358 18.7218 118.422 18.8953 118.422 19.1323C118.422 19.3651 118.358 19.5386 118.231 19.6528C118.109 19.7671 117.961 19.8242 117.787 19.8242C117.605 19.8242 117.453 19.7671 117.33 19.6528C117.212 19.5386 117.152 19.3651 117.152 19.1323C117.152 18.8953 117.212 18.7218 117.33 18.6118C117.453 18.4976 117.605 18.4404 117.787 18.4404ZM123.322 28.127C122.696 28.127 122.144 27.9979 121.666 27.7397C121.187 27.4816 120.815 27.0881 120.548 26.5591C120.282 26.0301 120.148 25.3636 120.148 24.5596C120.148 23.7174 120.288 23.0298 120.567 22.4966C120.851 21.9591 121.24 21.5614 121.735 21.3032C122.23 21.0451 122.793 20.916 123.424 20.916C123.771 20.916 124.105 20.952 124.427 21.0239C124.753 21.0916 125.019 21.1784 125.227 21.2842L124.909 22.1665C124.698 22.0819 124.452 22.0057 124.173 21.938C123.898 21.8703 123.64 21.8364 123.398 21.8364C122.916 21.8364 122.514 21.9401 122.192 22.1475C121.875 22.3548 121.636 22.6595 121.475 23.0615C121.319 23.4635 121.24 23.9587 121.24 24.5469C121.24 25.1097 121.316 25.59 121.469 25.9878C121.625 26.3856 121.856 26.6903 122.161 26.9019C122.47 27.1092 122.855 27.2129 123.316 27.2129C123.684 27.2129 124.016 27.1748 124.312 27.0986C124.609 27.0182 124.877 26.9251 125.119 26.8193V27.7588C124.886 27.8773 124.626 27.9683 124.338 28.0317C124.054 28.0952 123.716 28.127 123.322 28.127ZM124.357 29.8154C124.357 30.2259 124.198 30.5454 123.881 30.7739C123.563 31.0067 123.098 31.123 122.484 31.123C122.353 31.123 122.228 31.1146 122.11 31.0977C121.991 31.085 121.896 31.0701 121.824 31.0532V30.3867C121.905 30.4036 122.008 30.4185 122.135 30.4312C122.262 30.4438 122.389 30.4502 122.516 30.4502C122.833 30.4502 123.077 30.4036 123.246 30.3105C123.415 30.2174 123.5 30.0609 123.5 29.8408C123.5 29.6081 123.386 29.4388 123.157 29.333C122.933 29.2272 122.645 29.1553 122.294 29.1172L122.859 28H123.563L123.221 28.7109C123.432 28.7533 123.623 28.8188 123.792 28.9077C123.965 28.9966 124.103 29.1151 124.205 29.2632C124.306 29.4113 124.357 29.5954 124.357 29.8154ZM132.768 24.5088C132.768 25.0801 132.694 25.59 132.545 26.0386C132.397 26.4871 132.184 26.8659 131.904 27.1748C131.625 27.4837 131.286 27.7207 130.889 27.8857C130.495 28.0465 130.049 28.127 129.549 28.127C129.084 28.127 128.656 28.0465 128.267 27.8857C127.882 27.7207 127.548 27.4837 127.264 27.1748C126.985 26.8659 126.767 26.4871 126.61 26.0386C126.458 25.59 126.382 25.0801 126.382 24.5088C126.382 23.7471 126.511 23.0996 126.769 22.5664C127.027 22.029 127.395 21.6206 127.874 21.3413C128.356 21.0578 128.929 20.916 129.594 20.916C130.229 20.916 130.783 21.0578 131.257 21.3413C131.735 21.6248 132.105 22.0353 132.368 22.5728C132.634 23.106 132.768 23.7513 132.768 24.5088ZM127.474 24.5088C127.474 25.0674 127.548 25.5519 127.696 25.9624C127.844 26.3729 128.072 26.6903 128.381 26.9146C128.69 27.1388 129.088 27.251 129.575 27.251C130.057 27.251 130.453 27.1388 130.762 26.9146C131.075 26.6903 131.306 26.3729 131.454 25.9624C131.602 25.5519 131.676 25.0674 131.676 24.5088C131.676 23.9544 131.602 23.4762 131.454 23.0742C131.306 22.668 131.077 22.3548 130.768 22.1348C130.459 21.9147 130.059 21.8047 129.568 21.8047C128.845 21.8047 128.314 22.0438 127.975 22.522C127.641 23.0002 127.474 23.6624 127.474 24.5088ZM140.442 28.127C139.562 28.127 138.863 27.8265 138.347 27.2256C137.835 26.6247 137.579 25.7318 137.579 24.5469C137.579 23.3493 137.841 22.4458 138.366 21.8364C138.891 21.2228 139.589 20.916 140.461 20.916C140.829 20.916 141.151 20.9647 141.426 21.062C141.701 21.1593 141.938 21.2905 142.137 21.4556C142.336 21.6164 142.503 21.8005 142.638 22.0078H142.714C142.697 21.8766 142.681 21.6968 142.664 21.4683C142.647 21.2397 142.638 21.0535 142.638 20.9097V18.123H143.692V28H142.841L142.683 27.0098H142.638C142.507 27.2171 142.34 27.4054 142.137 27.5747C141.938 27.744 141.699 27.8794 141.419 27.981C141.144 28.0783 140.819 28.127 140.442 28.127ZM140.607 27.251C141.352 27.251 141.879 27.0394 142.188 26.6162C142.496 26.193 142.651 25.5646 142.651 24.731V24.5405C142.651 23.6561 142.503 22.9769 142.207 22.5029C141.915 22.029 141.381 21.792 140.607 21.792C139.959 21.792 139.475 22.0417 139.153 22.541C138.832 23.0361 138.671 23.7132 138.671 24.5723C138.671 25.4271 138.83 26.0872 139.147 26.5527C139.469 27.0182 139.955 27.251 140.607 27.251ZM148.605 20.916C149.197 20.916 149.705 21.0472 150.128 21.3096C150.552 21.5719 150.875 21.9401 151.1 22.4141C151.324 22.8838 151.436 23.4339 151.436 24.0645V24.7183H146.631C146.644 25.535 146.847 26.1571 147.24 26.5845C147.634 27.0119 148.188 27.2256 148.903 27.2256C149.343 27.2256 149.733 27.1854 150.071 27.105C150.41 27.0246 150.761 26.9061 151.125 26.7495V27.6763C150.774 27.8328 150.425 27.9471 150.078 28.019C149.735 28.091 149.329 28.127 148.859 28.127C148.19 28.127 147.606 27.9915 147.107 27.7207C146.612 27.4456 146.227 27.0436 145.952 26.5146C145.677 25.9857 145.539 25.3382 145.539 24.5723C145.539 23.8232 145.664 23.1758 145.914 22.6299C146.167 22.0798 146.523 21.6566 146.98 21.3604C147.441 21.0641 147.983 20.916 148.605 20.916ZM148.592 21.7793C148.029 21.7793 147.581 21.9634 147.247 22.3315C146.912 22.6997 146.713 23.2139 146.65 23.874H150.332C150.327 23.4593 150.262 23.0954 150.135 22.7822C150.012 22.4648 149.824 22.2194 149.57 22.0459C149.316 21.8682 148.99 21.7793 148.592 21.7793ZM159.206 20.9287C160.035 20.9287 160.651 21.1149 161.053 21.4873C161.455 21.8597 161.656 22.4543 161.656 23.271V28H160.888L160.685 26.9717H160.634C160.439 27.2256 160.236 27.4393 160.024 27.6128C159.813 27.7821 159.567 27.9111 159.288 28C159.013 28.0846 158.674 28.127 158.272 28.127C157.849 28.127 157.473 28.0529 157.143 27.9048C156.817 27.7567 156.559 27.5324 156.368 27.2319C156.182 26.9315 156.089 26.5506 156.089 26.0894C156.089 25.3953 156.364 24.8621 156.914 24.4897C157.464 24.1174 158.302 23.9142 159.428 23.8804L160.627 23.8296V23.4043C160.627 22.8034 160.498 22.3823 160.24 22.1411C159.982 21.8999 159.618 21.7793 159.148 21.7793C158.785 21.7793 158.438 21.8322 158.107 21.938C157.777 22.0438 157.464 22.1686 157.168 22.3125L156.844 21.5127C157.157 21.3519 157.517 21.2144 157.923 21.1001C158.33 20.9858 158.757 20.9287 159.206 20.9287ZM160.615 24.5723L159.555 24.6167C158.687 24.6506 158.076 24.7923 157.72 25.042C157.365 25.2917 157.187 25.645 157.187 26.1021C157.187 26.4998 157.308 26.7939 157.549 26.9844C157.79 27.1748 158.11 27.27 158.507 27.27C159.125 27.27 159.631 27.0986 160.024 26.7559C160.418 26.4131 160.615 25.8989 160.615 25.2134V24.5723ZM166.074 27.2637C166.247 27.2637 166.425 27.2489 166.607 27.2192C166.789 27.1896 166.937 27.1536 167.051 27.1113V27.9302C166.929 27.9852 166.757 28.0317 166.537 28.0698C166.321 28.1079 166.11 28.127 165.902 28.127C165.534 28.127 165.2 28.0635 164.899 27.9365C164.599 27.8053 164.358 27.5853 164.176 27.2764C163.998 26.9674 163.909 26.54 163.909 25.9941V21.8682H162.919V21.354L163.916 20.9414L164.334 19.4307H164.969V21.043H167.007V21.8682H164.969V25.9624C164.969 26.3983 165.069 26.7241 165.268 26.9399C165.471 27.1558 165.739 27.2637 166.074 27.2637ZM171.139 20.916C171.732 20.916 172.239 21.0472 172.663 21.3096C173.086 21.5719 173.41 21.9401 173.634 22.4141C173.858 22.8838 173.97 23.4339 173.97 24.0645V24.7183H169.165C169.178 25.535 169.381 26.1571 169.774 26.5845C170.168 27.0119 170.722 27.2256 171.438 27.2256C171.878 27.2256 172.267 27.1854 172.605 27.105C172.944 27.0246 173.295 26.9061 173.659 26.7495V27.6763C173.308 27.8328 172.959 27.9471 172.612 28.019C172.269 28.091 171.863 28.127 171.393 28.127C170.724 28.127 170.14 27.9915 169.641 27.7207C169.146 27.4456 168.761 27.0436 168.486 26.5146C168.211 25.9857 168.073 25.3382 168.073 24.5723C168.073 23.8232 168.198 23.1758 168.448 22.6299C168.702 22.0798 169.057 21.6566 169.514 21.3604C169.975 21.0641 170.517 20.916 171.139 20.916ZM171.126 21.7793C170.564 21.7793 170.115 21.9634 169.781 22.3315C169.446 22.6997 169.248 23.2139 169.184 23.874H172.866C172.861 23.4593 172.796 23.0954 172.669 22.7822C172.546 22.4648 172.358 22.2194 172.104 22.0459C171.85 21.8682 171.524 21.7793 171.126 21.7793ZM179.055 20.916C179.88 20.916 180.504 21.1191 180.927 21.5254C181.35 21.9274 181.562 22.5749 181.562 23.4678V28H180.521V23.5376C180.521 22.9578 180.388 22.5241 180.121 22.2363C179.859 21.9486 179.455 21.8047 178.909 21.8047C178.139 21.8047 177.597 22.0226 177.284 22.4585C176.971 22.8944 176.814 23.527 176.814 24.3564V28H175.76V21.043H176.611L176.77 22.0459H176.827C176.975 21.8005 177.163 21.5952 177.392 21.4302C177.62 21.2609 177.876 21.134 178.16 21.0493C178.443 20.9604 178.742 20.916 179.055 20.916ZM186.208 28.127C185.328 28.127 184.63 27.8265 184.114 27.2256C183.602 26.6247 183.346 25.7318 183.346 24.5469C183.346 23.3493 183.608 22.4458 184.133 21.8364C184.658 21.2228 185.356 20.916 186.228 20.916C186.596 20.916 186.917 20.9647 187.192 21.062C187.467 21.1593 187.704 21.2905 187.903 21.4556C188.102 21.6164 188.269 21.8005 188.405 22.0078H188.481C188.464 21.8766 188.447 21.6968 188.43 21.4683C188.413 21.2397 188.405 21.0535 188.405 20.9097V18.123H189.458V28H188.608L188.449 27.0098H188.405C188.274 27.2171 188.106 27.4054 187.903 27.5747C187.704 27.744 187.465 27.8794 187.186 27.981C186.911 28.0783 186.585 28.127 186.208 28.127ZM186.374 27.251C187.118 27.251 187.645 27.0394 187.954 26.6162C188.263 26.193 188.417 25.5646 188.417 24.731V24.5405C188.417 23.6561 188.269 22.9769 187.973 22.5029C187.681 22.029 187.148 21.792 186.374 21.792C185.726 21.792 185.242 22.0417 184.92 22.541C184.598 23.0361 184.438 23.7132 184.438 24.5723C184.438 25.4271 184.596 26.0872 184.914 26.5527C185.235 27.0182 185.722 27.251 186.374 27.251ZM192.747 21.043V28H191.693V21.043H192.747ZM192.232 18.4404C192.406 18.4404 192.554 18.4976 192.677 18.6118C192.804 18.7218 192.867 18.8953 192.867 19.1323C192.867 19.3651 192.804 19.5386 192.677 19.6528C192.554 19.7671 192.406 19.8242 192.232 19.8242C192.05 19.8242 191.898 19.7671 191.775 19.6528C191.657 19.5386 191.598 19.3651 191.598 19.1323C191.598 18.8953 191.657 18.7218 191.775 18.6118C191.898 18.4976 192.05 18.4404 192.232 18.4404ZM202.535 20.916C203.301 20.916 203.878 21.117 204.268 21.519C204.657 21.9168 204.852 22.5579 204.852 23.4424V28H203.811V23.4932C203.811 22.9303 203.688 22.5093 203.442 22.23C203.201 21.9465 202.841 21.8047 202.363 21.8047C201.69 21.8047 201.202 21.9993 200.897 22.3887C200.592 22.778 200.44 23.3514 200.44 24.1089V28H199.393V23.4932C199.393 23.1165 199.338 22.8034 199.228 22.5537C199.122 22.304 198.961 22.1178 198.745 21.9951C198.534 21.8682 198.265 21.8047 197.939 21.8047C197.478 21.8047 197.107 21.8999 196.828 22.0903C196.549 22.2808 196.346 22.5643 196.219 22.9409C196.096 23.3133 196.035 23.7725 196.035 24.3184V28H194.981V21.043H195.832L195.99 22.0269H196.047C196.187 21.7856 196.363 21.5825 196.574 21.4175C196.786 21.2524 197.023 21.1276 197.285 21.043C197.548 20.9583 197.827 20.916 198.123 20.916C198.652 20.916 199.094 21.0155 199.45 21.2144C199.809 21.409 200.07 21.7074 200.23 22.1094H200.288C200.516 21.7074 200.829 21.409 201.227 21.2144C201.625 21.0155 202.061 20.916 202.535 20.916ZM209.695 20.916C210.287 20.916 210.795 21.0472 211.218 21.3096C211.641 21.5719 211.965 21.9401 212.189 22.4141C212.414 22.8838 212.526 23.4339 212.526 24.0645V24.7183H207.721C207.733 25.535 207.937 26.1571 208.33 26.5845C208.724 27.0119 209.278 27.2256 209.993 27.2256C210.433 27.2256 210.823 27.1854 211.161 27.105C211.5 27.0246 211.851 26.9061 212.215 26.7495V27.6763C211.864 27.8328 211.514 27.9471 211.167 28.019C210.825 28.091 210.418 28.127 209.949 28.127C209.28 28.127 208.696 27.9915 208.197 27.7207C207.702 27.4456 207.317 27.0436 207.042 26.5146C206.766 25.9857 206.629 25.3382 206.629 24.5723C206.629 23.8232 206.754 23.1758 207.003 22.6299C207.257 22.0798 207.613 21.6566 208.07 21.3604C208.531 21.0641 209.073 20.916 209.695 20.916ZM209.682 21.7793C209.119 21.7793 208.671 21.9634 208.336 22.3315C208.002 22.6997 207.803 23.2139 207.74 23.874H211.421C211.417 23.4593 211.352 23.0954 211.225 22.7822C211.102 22.4648 210.914 22.2194 210.66 22.0459C210.406 21.8682 210.08 21.7793 209.682 21.7793ZM217.61 20.916C218.436 20.916 219.06 21.1191 219.483 21.5254C219.906 21.9274 220.118 22.5749 220.118 23.4678V28H219.077V23.5376C219.077 22.9578 218.943 22.5241 218.677 22.2363C218.414 21.9486 218.01 21.8047 217.464 21.8047C216.694 21.8047 216.153 22.0226 215.839 22.4585C215.526 22.8944 215.37 23.527 215.37 24.3564V28H214.316V21.043H215.167L215.325 22.0459H215.382C215.53 21.8005 215.719 21.5952 215.947 21.4302C216.176 21.2609 216.432 21.134 216.715 21.0493C216.999 20.9604 217.297 20.916 217.61 20.916ZM224.536 27.2637C224.709 27.2637 224.887 27.2489 225.069 27.2192C225.251 27.1896 225.399 27.1536 225.513 27.1113V27.9302C225.39 27.9852 225.219 28.0317 224.999 28.0698C224.783 28.1079 224.572 28.127 224.364 28.127C223.996 28.127 223.662 28.0635 223.361 27.9365C223.061 27.8053 222.82 27.5853 222.638 27.2764C222.46 26.9674 222.371 26.54 222.371 25.9941V21.8682H221.381V21.354L222.377 20.9414L222.796 19.4307H223.431V21.043H225.469V21.8682H223.431V25.9624C223.431 26.3983 223.531 26.7241 223.729 26.9399C223.933 27.1558 224.201 27.2637 224.536 27.2637ZM232.921 24.5088C232.921 25.0801 232.847 25.59 232.699 26.0386C232.551 26.4871 232.337 26.8659 232.058 27.1748C231.778 27.4837 231.44 27.7207 231.042 27.8857C230.648 28.0465 230.202 28.127 229.703 28.127C229.237 28.127 228.81 28.0465 228.42 27.8857C228.035 27.7207 227.701 27.4837 227.417 27.1748C227.138 26.8659 226.92 26.4871 226.764 26.0386C226.611 25.59 226.535 25.0801 226.535 24.5088C226.535 23.7471 226.664 23.0996 226.922 22.5664C227.181 22.029 227.549 21.6206 228.027 21.3413C228.509 21.0578 229.083 20.916 229.747 20.916C230.382 20.916 230.936 21.0578 231.41 21.3413C231.888 21.6248 232.259 22.0353 232.521 22.5728C232.788 23.106 232.921 23.7513 232.921 24.5088ZM227.627 24.5088C227.627 25.0674 227.701 25.5519 227.849 25.9624C227.997 26.3729 228.226 26.6903 228.535 26.9146C228.844 27.1388 229.241 27.251 229.728 27.251C230.21 27.251 230.606 27.1388 230.915 26.9146C231.228 26.6903 231.459 26.3729 231.607 25.9624C231.755 25.5519 231.829 25.0674 231.829 24.5088C231.829 23.9544 231.755 23.4762 231.607 23.0742C231.459 22.668 231.23 22.3548 230.921 22.1348C230.612 21.9147 230.213 21.8047 229.722 21.8047C228.998 21.8047 228.467 22.0438 228.128 22.522C227.794 23.0002 227.627 23.6624 227.627 24.5088ZM240.722 20.9287C241.552 20.9287 242.167 21.1149 242.569 21.4873C242.971 21.8597 243.172 22.4543 243.172 23.271V28H242.404L242.201 26.9717H242.15C241.956 27.2256 241.753 27.4393 241.541 27.6128C241.329 27.7821 241.084 27.9111 240.805 28C240.53 28.0846 240.191 28.127 239.789 28.127C239.366 28.127 238.989 28.0529 238.659 27.9048C238.333 27.7567 238.075 27.5324 237.885 27.2319C237.699 26.9315 237.605 26.5506 237.605 26.0894C237.605 25.3953 237.881 24.8621 238.431 24.4897C238.981 24.1174 239.819 23.9142 240.944 23.8804L242.144 23.8296V23.4043C242.144 22.8034 242.015 22.3823 241.757 22.1411C241.499 21.8999 241.135 21.7793 240.665 21.7793C240.301 21.7793 239.954 21.8322 239.624 21.938C239.294 22.0438 238.981 22.1686 238.685 22.3125L238.361 21.5127C238.674 21.3519 239.034 21.2144 239.44 21.1001C239.846 20.9858 240.274 20.9287 240.722 20.9287ZM242.131 24.5723L241.071 24.6167C240.204 24.6506 239.592 24.7923 239.237 25.042C238.881 25.2917 238.704 25.645 238.704 26.1021C238.704 26.4998 238.824 26.7939 239.065 26.9844C239.307 27.1748 239.626 27.27 240.024 27.27C240.642 27.27 241.147 27.0986 241.541 26.7559C241.935 26.4131 242.131 25.8989 242.131 25.2134V24.5723ZM251.342 24.5088C251.342 25.0801 251.268 25.59 251.12 26.0386C250.972 26.4871 250.758 26.8659 250.479 27.1748C250.199 27.4837 249.861 27.7207 249.463 27.8857C249.069 28.0465 248.623 28.127 248.124 28.127C247.658 28.127 247.231 28.0465 246.841 27.8857C246.456 27.7207 246.122 27.4837 245.838 27.1748C245.559 26.8659 245.341 26.4871 245.185 26.0386C245.032 25.59 244.956 25.0801 244.956 24.5088C244.956 23.7471 245.085 23.0996 245.343 22.5664C245.601 22.029 245.97 21.6206 246.448 21.3413C246.93 21.0578 247.504 20.916 248.168 20.916C248.803 20.916 249.357 21.0578 249.831 21.3413C250.309 21.6248 250.68 22.0353 250.942 22.5728C251.208 23.106 251.342 23.7513 251.342 24.5088ZM246.048 24.5088C246.048 25.0674 246.122 25.5519 246.27 25.9624C246.418 26.3729 246.647 26.6903 246.956 26.9146C247.264 27.1388 247.662 27.251 248.149 27.251C248.631 27.251 249.027 27.1388 249.336 26.9146C249.649 26.6903 249.88 26.3729 250.028 25.9624C250.176 25.5519 250.25 25.0674 250.25 24.5088C250.25 23.9544 250.176 23.4762 250.028 23.0742C249.88 22.668 249.651 22.3548 249.342 22.1348C249.033 21.9147 248.633 21.8047 248.143 21.8047C247.419 21.8047 246.888 22.0438 246.549 22.522C246.215 23.0002 246.048 23.6624 246.048 24.5088ZM259.327 28.127C258.701 28.127 258.149 27.9979 257.67 27.7397C257.192 27.4816 256.82 27.0881 256.553 26.5591C256.287 26.0301 256.153 25.3636 256.153 24.5596C256.153 23.7174 256.293 23.0298 256.572 22.4966C256.856 21.9591 257.245 21.5614 257.74 21.3032C258.235 21.0451 258.798 20.916 259.429 20.916C259.776 20.916 260.11 20.952 260.432 21.0239C260.757 21.0916 261.024 21.1784 261.231 21.2842L260.914 22.1665C260.702 22.0819 260.457 22.0057 260.178 21.938C259.903 21.8703 259.645 21.8364 259.403 21.8364C258.921 21.8364 258.519 21.9401 258.197 22.1475C257.88 22.3548 257.641 22.6595 257.48 23.0615C257.323 23.4635 257.245 23.9587 257.245 24.5469C257.245 25.1097 257.321 25.59 257.474 25.9878C257.63 26.3856 257.861 26.6903 258.166 26.9019C258.474 27.1092 258.86 27.2129 259.321 27.2129C259.689 27.2129 260.021 27.1748 260.317 27.0986C260.614 27.0182 260.882 26.9251 261.124 26.8193V27.7588C260.891 27.8773 260.631 27.9683 260.343 28.0317C260.059 28.0952 259.721 28.127 259.327 28.127ZM263.834 28H262.774V18.123H263.834V28ZM267.116 21.043V28H266.062V21.043H267.116ZM266.602 18.4404C266.775 18.4404 266.923 18.4976 267.046 18.6118C267.173 18.7218 267.236 18.8953 267.236 19.1323C267.236 19.3651 267.173 19.5386 267.046 19.6528C266.923 19.7671 266.775 19.8242 266.602 19.8242C266.42 19.8242 266.267 19.7671 266.145 19.6528C266.026 19.5386 265.967 19.3651 265.967 19.1323C265.967 18.8953 266.026 18.7218 266.145 18.6118C266.267 18.4976 266.42 18.4404 266.602 18.4404ZM272.029 20.916C272.621 20.916 273.129 21.0472 273.552 21.3096C273.975 21.5719 274.299 21.9401 274.523 22.4141C274.748 22.8838 274.86 23.4339 274.86 24.0645V24.7183H270.055C270.067 25.535 270.271 26.1571 270.664 26.5845C271.058 27.0119 271.612 27.2256 272.327 27.2256C272.767 27.2256 273.157 27.1854 273.495 27.105C273.834 27.0246 274.185 26.9061 274.549 26.7495V27.6763C274.198 27.8328 273.848 27.9471 273.501 28.019C273.159 28.091 272.752 28.127 272.283 28.127C271.614 28.127 271.03 27.9915 270.531 27.7207C270.036 27.4456 269.651 27.0436 269.375 26.5146C269.1 25.9857 268.963 25.3382 268.963 24.5723C268.963 23.8232 269.088 23.1758 269.337 22.6299C269.591 22.0798 269.947 21.6566 270.404 21.3604C270.865 21.0641 271.407 20.916 272.029 20.916ZM272.016 21.7793C271.453 21.7793 271.005 21.9634 270.67 22.3315C270.336 22.6997 270.137 23.2139 270.074 23.874H273.755C273.751 23.4593 273.686 23.0954 273.559 22.7822C273.436 22.4648 273.248 22.2194 272.994 22.0459C272.74 21.8682 272.414 21.7793 272.016 21.7793ZM279.944 20.916C280.77 20.916 281.394 21.1191 281.817 21.5254C282.24 21.9274 282.452 22.5749 282.452 23.4678V28H281.411V23.5376C281.411 22.9578 281.277 22.5241 281.011 22.2363C280.748 21.9486 280.344 21.8047 279.798 21.8047C279.028 21.8047 278.486 22.0226 278.173 22.4585C277.86 22.8944 277.704 23.527 277.704 24.3564V28H276.65V21.043H277.5L277.659 22.0459H277.716C277.864 21.8005 278.053 21.5952 278.281 21.4302C278.51 21.2609 278.766 21.134 279.049 21.0493C279.333 20.9604 279.631 20.916 279.944 20.916ZM286.87 27.2637C287.043 27.2637 287.221 27.2489 287.403 27.2192C287.585 27.1896 287.733 27.1536 287.847 27.1113V27.9302C287.724 27.9852 287.553 28.0317 287.333 28.0698C287.117 28.1079 286.906 28.127 286.698 28.127C286.33 28.127 285.996 28.0635 285.695 27.9365C285.395 27.8053 285.154 27.5853 284.972 27.2764C284.794 26.9674 284.705 26.54 284.705 25.9941V21.8682H283.715V21.354L284.711 20.9414L285.13 19.4307H285.765V21.043H287.803V21.8682H285.765V25.9624C285.765 26.3983 285.865 26.7241 286.063 26.9399C286.267 27.1558 286.535 27.2637 286.87 27.2637ZM291.935 20.916C292.528 20.916 293.035 21.0472 293.458 21.3096C293.882 21.5719 294.205 21.9401 294.43 22.4141C294.654 22.8838 294.766 23.4339 294.766 24.0645V24.7183H289.961C289.974 25.535 290.177 26.1571 290.57 26.5845C290.964 27.0119 291.518 27.2256 292.233 27.2256C292.674 27.2256 293.063 27.1854 293.401 27.105C293.74 27.0246 294.091 26.9061 294.455 26.7495V27.6763C294.104 27.8328 293.755 27.9471 293.408 28.019C293.065 28.091 292.659 28.127 292.189 28.127C291.52 28.127 290.936 27.9915 290.437 27.7207C289.942 27.4456 289.557 27.0436 289.282 26.5146C289.007 25.9857 288.869 25.3382 288.869 24.5723C288.869 23.8232 288.994 23.1758 289.244 22.6299C289.498 22.0798 289.853 21.6566 290.31 21.3604C290.771 21.0641 291.313 20.916 291.935 20.916ZM291.922 21.7793C291.36 21.7793 290.911 21.9634 290.577 22.3315C290.242 22.6997 290.043 23.2139 289.98 23.874H293.662C293.657 23.4593 293.592 23.0954 293.465 22.7822C293.342 22.4648 293.154 22.2194 292.9 22.0459C292.646 21.8682 292.32 21.7793 291.922 21.7793Z" fill="#E2DBD4"/>
</svg>
