<svg width="107" height="108" viewBox="0 0 107 108" fill="none" xmlns="http://www.w3.org/2000/svg">
<path d="M0 54.6409H107M53.1862 0V108M40.3211 29.3234L65.7375 79.4777M28.5543 41.5015L77.3475 68.1009M13.1789 103.353H93.1935C98.0459 103.353 101.979 99.3356 101.979 94.3798V13.9407C101.979 8.98484 98.0459 4.96736 93.1935 4.96736H13.1789C8.32655 4.96736 4.39296 8.98484 4.39296 13.9407V94.3798C4.39296 99.3356 8.32655 103.353 13.1789 103.353ZM54.2645 51.0311C56.0713 45.4988 60.3645 33.714 65.6083 28.626C72.5816 21.8601 83.7609 35.2232 78.2007 41.1438C73.9688 45.65 61.7797 50.744 56.197 52.9208C55.0043 53.3859 53.8605 52.268 54.2645 51.0311ZM50.1224 55.9024C44.7056 57.7478 33.1669 62.1325 28.1852 67.4882C21.5605 74.6102 34.6446 86.0279 40.4416 80.3491C44.8537 76.027 49.8413 63.5779 51.9727 57.8762C52.428 56.658 51.3335 55.4898 50.1224 55.9024Z" stroke="#CFC3C6" stroke-width="3"/>
</svg>
