<svg width="105" height="95" viewBox="0 0 105 95" fill="none" xmlns="http://www.w3.org/2000/svg">
<path d="M7.07803 16.2536C-5.50833 38.7771 4.06595 56.8843 49.7724 92.3988C51.551 93.7808 54.0896 93.7886 55.8749 92.4151C99.0708 59.1829 107.908 41.7291 100.792 19.4962C98.9578 13.7656 94.9987 8.87668 89.7765 5.88779C80.7539 0.723748 73.9033 0.279549 65.6949 5.19788C60.2402 8.46624 56.4397 13.8009 53.3783 19.3744C53.1387 19.8107 52.5055 19.7963 52.2752 19.355C49.412 13.8674 45.4191 8.79521 39.944 5.90822C31.119 1.25486 24.4441 1.44938 17.1153 5.7118C12.8619 8.18562 9.47833 11.9582 7.07803 16.2536Z" stroke="#CFC3C6" stroke-width="3"/>
</svg>
