<svg width="74" height="108" viewBox="0 0 74 108" fill="none" xmlns="http://www.w3.org/2000/svg">
<path d="M36.125 75.623V80.123M36.125 80.123L56.9999 99.3729M36.125 80.123L15.3752 99.3729M35.875 65.3731V69.8731M36.125 54.7481V59.4981M0 1.5H73.75M0 106.497H73.5M3.7304 7.73C1.9474 28.9215 7.37113 39.9634 26.9598 54.1633C27.0994 54.2644 27.0972 54.4794 26.9559 54.5781C6.48945 68.8727 1.05534 78.7054 3.72158 99.5268C3.73753 99.6513 3.8441 99.7479 3.96968 99.7479H68.3893C68.5216 99.7479 68.6313 99.6402 68.6389 99.5081C70.0975 74.1642 62.9257 65.9048 46.0525 54.5759C45.9078 54.4787 45.9052 54.2611 46.0463 54.1588C66.1865 39.5612 70.5352 29.1178 68.6455 7.72924C68.6341 7.60036 68.5257 7.49826 68.3964 7.49826H3.9795C3.84977 7.49826 3.74128 7.60072 3.7304 7.73ZM19.6764 31.6232H53.0107C54.2109 31.6232 54.7213 33.1501 53.7624 33.8719L36.9173 46.5512C36.4684 46.8892 35.8491 46.886 35.4036 46.5434L18.9144 33.8641C17.9681 33.1365 18.4827 31.6232 19.6764 31.6232Z" stroke="#CFC3C6" stroke-width="3"/>
</svg>
