<svg xmlns="http://www.w3.org/2000/svg" xmlns:xlink="http://www.w3.org/1999/xlink" width="500" zoomAndPan="magnify" viewBox="0 0 375 374.999991" height="500" preserveAspectRatio="xMidYMid meet" version="1.0"><defs><clipPath id="b73c2efd8b"><path d="M 6.25 6.25 L 368.75 6.25 L 368.75 368.75 L 6.25 368.75 Z M 6.25 6.25 " clip-rule="nonzero"/></clipPath><clipPath id="3948b15339"><path d="M 187.5 6.25 C 87.398438 6.25 6.25 87.398438 6.25 187.5 C 6.25 287.601562 87.398438 368.75 187.5 368.75 C 287.601562 368.75 368.75 287.601562 368.75 187.5 C 368.75 87.398438 287.601562 6.25 187.5 6.25 Z M 187.5 6.25 " clip-rule="nonzero"/></clipPath><clipPath id="f211ea6f39"><path d="M 107 68.183594 L 154 68.183594 L 154 125 L 107 125 Z M 107 68.183594 " clip-rule="nonzero"/></clipPath></defs><g clip-path="url(#b73c2efd8b)"><g clip-path="url(#3948b15339)"><path fill="#cfc3c6" d="M 6.25 6.25 L 368.75 6.25 L 368.75 368.75 L 6.25 368.75 Z M 6.25 6.25 " fill-opacity="1" fill-rule="nonzero"/></g></g><path fill="#2b0f39" d="M 74.496094 115.085938 C 78.03125 113.988281 81.746094 113.371094 85.550781 113.371094 C 87.875 113.371094 90.148438 113.664062 92.390625 114.085938 L 67.011719 88.710938 L 73.601562 82.121094 L 98.484375 107.007812 C 98.339844 105.59375 98.261719 104.164062 98.261719 102.726562 C 98.261719 98.304688 98.984375 93.984375 100.3125 89.882812 C 99.378906 88.660156 98.386719 87.46875 97.296875 86.378906 C 90.664062 79.75 81.851562 76.097656 72.472656 76.097656 L 60.988281 76.097656 L 60.988281 87.582031 C 60.988281 96.960938 64.640625 105.773438 71.269531 112.40625 C 72.261719 113.398438 73.394531 114.222656 74.496094 115.085938 Z M 74.496094 115.085938 " fill-opacity="1" fill-rule="nonzero"/><path fill="#2b0f39" d="M 111.167969 152.300781 C 110.78125 151.773438 110.433594 151.214844 110.101562 150.644531 L 100.191406 150.644531 L 87.578125 163.257812 L 80.988281 156.671875 L 87.015625 150.644531 L 70.304688 150.644531 L 70.304688 141.328125 L 87.015625 141.328125 L 80.988281 135.304688 L 87.578125 128.714844 L 100.191406 141.328125 L 107.582031 141.328125 C 107.582031 139.15625 107.984375 137.070312 108.679688 135.117188 C 103.539062 127.425781 94.898438 122.691406 85.550781 122.691406 C 77.253906 122.691406 69.445312 126.347656 64.121094 132.722656 L 53.074219 145.988281 L 64.128906 159.257812 C 69.445312 165.625 77.25 169.285156 85.550781 169.285156 C 96.8125 169.285156 106.777344 162.625 111.167969 152.300781 Z M 111.167969 152.300781 " fill-opacity="1" fill-rule="nonzero"/><g clip-path="url(#f211ea6f39)"><path fill="#2b0f39" d="M 121.226562 108.382812 C 121.6875 107.921875 122.183594 107.511719 122.679688 107.105469 L 113.605469 98.027344 L 120.191406 91.441406 L 126.21875 97.464844 L 126.21875 85.414062 L 135.535156 85.414062 L 135.535156 103.023438 C 136.519531 103.089844 137.496094 103.199219 138.472656 103.417969 C 141.636719 98.367188 147.058594 95.128906 153.148438 94.800781 C 151.476562 88.25 147.796875 82.285156 142.558594 77.917969 L 130.878906 68.183594 L 119.199219 77.917969 C 111.816406 84.070312 107.582031 93.117188 107.582031 102.726562 C 107.582031 110.875 110.609375 118.539062 116.082031 124.507812 C 115.121094 118.707031 116.898438 112.707031 121.226562 108.382812 Z M 121.226562 108.382812 " fill-opacity="1" fill-rule="nonzero"/></g><path fill="#2b0f39" d="M 192.082031 125.625 C 197.417969 128.964844 200.765625 134.820312 200.765625 141.328125 C 200.765625 141.496094 200.738281 141.652344 200.734375 141.820312 C 200.878906 141.792969 201.015625 141.742188 201.15625 141.714844 C 202.449219 134.777344 206.84375 128.949219 212.820312 125.628906 C 208.4375 123.273438 205.425781 118.695312 205.425781 113.371094 C 205.425781 105.652344 211.683594 99.394531 219.402344 99.394531 C 227.125 99.394531 233.382812 105.652344 233.382812 113.371094 C 233.382812 117.269531 231.777344 120.792969 229.199219 123.328125 C 237.304688 125.167969 243.773438 131.222656 246.230469 139.078125 C 248.628906 136.222656 249.144531 132.222656 247.359375 128.828125 L 244.75 123.867188 L 250.101562 122.210938 C 254.03125 120.988281 256.675781 117.4375 256.675781 113.375 C 256.675781 109.3125 254.03125 105.757812 250.101562 104.542969 L 244.75 102.882812 L 247.359375 97.925781 C 249.273438 94.28125 248.632812 89.898438 245.761719 87.023438 C 242.890625 84.152344 238.507812 83.503906 234.859375 85.425781 L 229.902344 88.035156 L 228.242188 82.683594 C 227.023438 78.753906 223.472656 76.109375 219.410156 76.109375 C 215.347656 76.109375 211.789062 78.753906 210.574219 82.683594 L 208.914062 88.035156 L 203.957031 85.425781 C 200.304688 83.5 195.925781 84.15625 193.054688 87.023438 C 190.183594 89.898438 189.542969 94.28125 191.457031 97.925781 L 194.066406 102.882812 L 188.71875 104.542969 C 187.363281 104.964844 186.121094 105.691406 185.097656 106.644531 C 185.804688 107.175781 186.492188 107.742188 187.132812 108.386719 C 191.726562 112.984375 193.492188 119.488281 192.082031 125.625 Z M 192.082031 125.625 " fill-opacity="1" fill-rule="nonzero"/><path fill="#2b0f39" d="M 224.0625 197.238281 C 231.769531 197.238281 238.042969 190.96875 238.042969 183.261719 L 238.042969 178.601562 L 242.699219 178.601562 C 250.40625 178.601562 256.679688 172.332031 256.679688 164.625 C 256.679688 156.917969 250.40625 150.644531 242.699219 150.644531 L 238.042969 150.644531 L 238.042969 145.988281 C 238.042969 138.28125 231.769531 132.007812 224.0625 132.007812 C 216.355469 132.007812 210.085938 138.28125 210.085938 145.988281 L 210.085938 150.644531 L 205.425781 150.644531 C 199.648438 150.644531 194.574219 154.171875 192.46875 159.480469 C 192.695312 161.949219 192.414062 164.417969 191.667969 166.761719 C 192.710938 173.554688 198.457031 178.597656 205.425781 178.597656 L 210.085938 178.597656 L 210.085938 183.257812 C 210.085938 190.972656 216.355469 197.238281 224.0625 197.238281 Z M 224.0625 155.304688 C 229.210938 155.304688 233.382812 159.476562 233.382812 164.625 C 233.382812 169.773438 229.210938 173.941406 224.0625 173.941406 C 218.914062 173.941406 214.746094 169.773438 214.746094 164.625 C 214.746094 159.480469 218.917969 155.304688 224.0625 155.304688 Z M 224.0625 155.304688 " fill-opacity="1" fill-rule="nonzero"/><path fill="#2b0f39" d="M 134.554688 179.671875 C 131.199219 179.714844 127.871094 178.875 124.941406 177.148438 L 101.554688 200.535156 L 94.96875 193.945312 L 118.351562 170.558594 C 116.9375 168.160156 116.128906 165.496094 115.898438 162.765625 C 110.59375 170.335938 102.722656 175.601562 93.691406 177.609375 C 90.628906 182.929688 88.949219 188.910156 88.949219 195.074219 L 88.949219 206.558594 L 100.433594 206.558594 C 109.8125 206.558594 118.621094 202.90625 125.257812 196.273438 C 129.855469 191.671875 133.054688 185.921875 134.554688 179.671875 Z M 134.554688 179.671875 " fill-opacity="1" fill-rule="nonzero"/><path fill="#2b0f39" d="M 145.339844 110.628906 L 143.679688 115.976562 L 138.722656 113.367188 C 135.066406 111.441406 130.691406 112.09375 127.820312 114.964844 C 124.949219 117.839844 124.308594 122.222656 126.222656 125.867188 L 128.832031 130.824219 L 123.484375 132.484375 C 119.550781 133.703125 116.910156 137.253906 116.910156 141.316406 C 116.910156 145.382812 119.550781 148.9375 123.484375 150.152344 L 128.832031 151.8125 L 126.222656 156.769531 C 124.308594 160.410156 124.949219 164.796875 127.820312 167.671875 C 130.699219 170.550781 135.078125 171.1875 138.722656 169.269531 L 143.679688 166.660156 L 145.339844 172.007812 C 146.558594 175.941406 150.109375 178.582031 154.171875 178.582031 C 158.238281 178.582031 161.792969 175.941406 163.007812 172.007812 L 164.667969 166.660156 L 169.625 169.269531 C 173.277344 171.1875 177.65625 170.542969 180.527344 167.671875 C 183.398438 164.796875 184.039062 160.410156 182.125 156.769531 L 179.515625 151.8125 L 184.863281 150.152344 C 188.796875 148.929688 191.4375 145.382812 191.4375 141.316406 C 191.4375 137.253906 188.796875 133.699219 184.863281 132.484375 L 179.515625 130.824219 L 182.125 125.867188 C 184.039062 122.222656 183.398438 117.839844 180.527344 114.964844 C 177.652344 112.089844 173.265625 111.457031 169.625 113.367188 L 164.667969 115.976562 L 163.007812 110.628906 C 161.785156 106.695312 158.238281 104.054688 154.171875 104.054688 C 150.109375 104.054688 146.554688 106.699219 145.339844 110.628906 Z M 168.152344 141.328125 C 168.152344 149.046875 161.894531 155.304688 154.171875 155.304688 C 146.453125 155.304688 140.195312 149.046875 140.195312 141.328125 C 140.195312 133.605469 146.453125 127.347656 154.171875 127.347656 C 161.894531 127.347656 168.152344 133.605469 168.152344 141.328125 Z M 168.152344 141.328125 " fill-opacity="1" fill-rule="nonzero"/><path fill="#2b0f39" d="M 185.140625 175.984375 C 180.75 179.285156 175.179688 180.445312 169.878906 179.234375 C 169.261719 180.226562 168.523438 181.121094 167.742188 181.972656 C 174.648438 186.8125 181.003906 192.359375 186.765625 198.523438 C 190.59375 194.421875 194.710938 190.558594 199.117188 186.988281 C 193.117188 185.316406 188.121094 181.347656 185.140625 175.984375 Z M 185.140625 175.984375 " fill-opacity="1" fill-rule="nonzero"/><path fill="#2b0f39" d="M 174.570312 301.738281 C 173.488281 299.75 172.8125 297.507812 172.8125 295.089844 C 172.8125 292.671875 173.488281 290.425781 174.570312 288.441406 L 171.496094 284.59375 C 165.574219 277.199219 157.015625 272.667969 147.679688 271.90625 L 146.449219 274.363281 C 145.40625 276.449219 144.855469 278.777344 144.855469 281.105469 C 144.855469 283.4375 145.40625 285.765625 146.449219 287.847656 L 150.0625 295.085938 L 146.449219 302.320312 C 145.40625 304.402344 144.855469 306.734375 144.855469 309.0625 C 144.855469 311.390625 145.40625 313.722656 146.449219 315.804688 L 147.679688 318.265625 C 157.015625 317.5 165.578125 312.972656 171.5 305.574219 Z M 174.570312 301.738281 " fill-opacity="1" fill-rule="nonzero"/><path fill="#2b0f39" d="M 155.355469 263.785156 C 158.472656 242.398438 167.277344 222.320312 180.621094 205.597656 C 174.191406 198.601562 166.945312 192.453125 158.976562 187.292969 C 157.433594 187.703125 155.828125 187.925781 154.167969 187.925781 C 149.996094 187.925781 146.097656 186.53125 142.953125 184.136719 C 140.863281 191.152344 137.09375 197.605469 131.835938 202.867188 C 124.550781 210.15625 115.175781 214.585938 105.0625 215.632812 C 113.027344 235.542969 127.429688 252.03125 146.269531 262.558594 C 149.378906 262.652344 152.417969 263.050781 155.355469 263.785156 Z M 155.355469 263.785156 " fill-opacity="1" fill-rule="nonzero"/><path fill="#2b0f39" d="M 268.921875 179.21875 C 266.253906 179.824219 263.480469 179.785156 260.8125 179.207031 C 257.386719 183.453125 252.535156 186.496094 246.96875 187.527344 C 244.957031 198.34375 235.449219 206.558594 224.0625 206.558594 C 215.507812 206.558594 208.015625 201.921875 203.96875 195.027344 C 182.125 213.140625 167.914062 238.972656 164.332031 267.097656 C 169.84375 269.863281 174.785156 273.792969 178.769531 278.769531 L 181.488281 282.164062 C 183.121094 281.488281 184.910156 281.105469 186.789062 281.105469 C 188.667969 281.105469 190.449219 281.488281 192.089844 282.164062 L 194.804688 278.773438 C 202.804688 268.777344 214.601562 262.953125 227.324219 262.550781 C 255.523438 246.785156 273.601562 217.46875 275.152344 185.292969 C 272.652344 183.800781 270.503906 181.742188 268.921875 179.21875 Z M 268.921875 179.21875 " fill-opacity="1" fill-rule="nonzero"/><path fill="#2b0f39" d="M 315.335938 132.492188 L 309.984375 130.835938 L 312.59375 125.878906 C 314.511719 122.234375 313.867188 117.847656 310.996094 114.972656 C 308.121094 112.097656 303.738281 111.464844 300.09375 113.375 L 295.136719 115.984375 L 293.476562 110.636719 C 292.257812 106.703125 288.707031 104.0625 284.644531 104.0625 C 280.582031 104.0625 277.027344 106.703125 275.808594 110.636719 L 274.152344 115.988281 L 269.195312 113.375 C 268.171875 112.839844 267.070312 112.527344 265.949219 112.386719 C 265.96875 112.71875 266.015625 113.039062 266.015625 113.375 C 266.015625 119.886719 262.660156 125.738281 257.332031 129.078125 C 258.550781 134.378906 257.386719 139.949219 254.082031 144.335938 C 261.1875 148.332031 266.015625 155.910156 266.015625 164.628906 C 266.015625 166.613281 265.683594 168.511719 265.21875 170.351562 C 266.589844 170.289062 267.953125 169.945312 269.199219 169.289062 L 274.15625 166.679688 L 275.8125 172.027344 C 277.035156 175.960938 280.585938 178.601562 284.648438 178.601562 C 288.710938 178.601562 292.265625 175.960938 293.484375 172.027344 L 295.140625 166.679688 L 300.097656 169.289062 C 303.75 171.207031 308.132812 170.558594 311 167.691406 C 313.871094 164.816406 314.515625 160.429688 312.601562 156.785156 L 309.992188 151.828125 L 315.339844 150.171875 C 319.273438 148.949219 321.914062 145.398438 321.914062 141.335938 C 321.914062 137.273438 319.265625 133.710938 315.335938 132.492188 Z M 284.632812 155.304688 C 276.914062 155.304688 270.65625 149.046875 270.65625 141.328125 C 270.65625 133.605469 276.914062 127.347656 284.632812 127.347656 C 292.355469 127.347656 298.613281 133.605469 298.613281 141.328125 C 298.613281 149.046875 292.355469 155.304688 284.632812 155.304688 Z M 284.632812 155.304688 " fill-opacity="1" fill-rule="nonzero"/><path fill="#2b0f39" d="M 228.722656 281.105469 C 228.722656 278.777344 228.171875 276.449219 227.128906 274.363281 L 225.898438 271.90625 C 216.5625 272.667969 208 277.199219 202.074219 284.597656 L 199.003906 288.4375 C 200.089844 290.425781 200.765625 292.667969 200.765625 295.085938 C 200.765625 297.503906 200.089844 299.75 199.003906 301.734375 L 202.082031 305.582031 C 208.003906 312.976562 216.5625 317.503906 225.898438 318.269531 L 227.128906 315.808594 C 228.171875 313.726562 228.722656 311.398438 228.722656 309.066406 C 228.722656 306.738281 228.171875 304.410156 227.128906 302.324219 L 223.511719 295.089844 L 227.128906 287.855469 C 228.171875 285.765625 228.722656 283.4375 228.722656 281.105469 Z M 228.722656 281.105469 " fill-opacity="1" fill-rule="nonzero"/><path fill="#2b0f39" d="M 191.449219 295.085938 C 191.449219 295.390625 191.417969 295.695312 191.359375 295.992188 C 191.300781 296.292969 191.210938 296.585938 191.09375 296.867188 C 190.976562 297.152344 190.832031 297.417969 190.664062 297.671875 C 190.492188 297.929688 190.300781 298.164062 190.082031 298.378906 C 189.867188 298.597656 189.632812 298.789062 189.378906 298.960938 C 189.121094 299.128906 188.855469 299.273438 188.570312 299.390625 C 188.289062 299.507812 187.996094 299.59375 187.699219 299.65625 C 187.398438 299.714844 187.09375 299.746094 186.789062 299.746094 C 186.484375 299.746094 186.179688 299.714844 185.878906 299.65625 C 185.578125 299.59375 185.289062 299.507812 185.003906 299.390625 C 184.722656 299.273438 184.453125 299.128906 184.199219 298.960938 C 183.945312 298.789062 183.710938 298.597656 183.496094 298.378906 C 183.277344 298.164062 183.085938 297.929688 182.914062 297.671875 C 182.746094 297.417969 182.601562 297.152344 182.484375 296.867188 C 182.367188 296.585938 182.277344 296.292969 182.21875 295.992188 C 182.160156 295.695312 182.128906 295.390625 182.128906 295.085938 C 182.128906 294.777344 182.160156 294.476562 182.21875 294.175781 C 182.277344 293.875 182.367188 293.585938 182.484375 293.300781 C 182.601562 293.019531 182.746094 292.75 182.914062 292.496094 C 183.085938 292.242188 183.277344 292.007812 183.496094 291.789062 C 183.710938 291.574219 183.945312 291.382812 184.199219 291.210938 C 184.453125 291.039062 184.722656 290.898438 185.003906 290.78125 C 185.289062 290.664062 185.578125 290.574219 185.878906 290.515625 C 186.179688 290.457031 186.484375 290.425781 186.789062 290.425781 C 187.09375 290.425781 187.398438 290.457031 187.699219 290.515625 C 187.996094 290.574219 188.289062 290.664062 188.570312 290.78125 C 188.855469 290.898438 189.121094 291.039062 189.378906 291.210938 C 189.632812 291.378906 189.867188 291.574219 190.082031 291.789062 C 190.300781 292.007812 190.492188 292.242188 190.664062 292.496094 C 190.832031 292.75 190.976562 293.019531 191.09375 293.300781 C 191.210938 293.585938 191.300781 293.875 191.359375 294.175781 C 191.417969 294.476562 191.449219 294.777344 191.449219 295.085938 Z M 191.449219 295.085938 " fill-opacity="1" fill-rule="nonzero"/><path fill="#2b0f39" d="M 194.808594 311.402344 L 192.089844 308.003906 C 190.457031 308.679688 188.667969 309.0625 186.789062 309.0625 C 184.910156 309.0625 183.125 308.679688 181.488281 308.003906 L 178.773438 311.398438 C 177.457031 313.046875 175.996094 314.539062 174.488281 315.957031 C 172.273438 319.835938 170.519531 323.925781 169.285156 328.195312 C 174.117188 329.160156 178.558594 331.527344 182.128906 335.089844 C 184.621094 337.574219 188.957031 337.574219 191.449219 335.089844 C 195.015625 331.519531 199.460938 329.160156 204.292969 328.195312 C 203.058594 323.925781 201.300781 319.835938 199.089844 315.957031 C 197.578125 314.542969 196.125 313.050781 194.808594 311.402344 Z M 194.808594 311.402344 " fill-opacity="1" fill-rule="nonzero"/></svg>