<svg width="17" height="17" viewBox="0 0 17 17" fill="none" xmlns="http://www.w3.org/2000/svg">
<path d="M12.4922 4.95841H12.5004M6.37496 15.5834H10.625C14.1666 15.5834 15.5833 14.1667 15.5833 10.6251V6.37508C15.5833 2.83341 14.1666 1.41675 10.625 1.41675H6.37496C2.83329 1.41675 1.41663 2.83341 1.41663 6.37508V10.6251C1.41663 14.1667 2.83329 15.5834 6.37496 15.5834ZM10.9791 8.50008C10.9791 9.86929 9.86917 10.9792 8.49996 10.9792C7.13075 10.9792 6.02079 9.86929 6.02079 8.50008C6.02079 7.13088 7.13075 6.02091 8.49996 6.02091C9.86917 6.02091 10.9791 7.13088 10.9791 8.50008Z" stroke="#E2DBD4" stroke-width="1.5" stroke-linecap="round" stroke-linejoin="round"/>
</svg>
