<svg width="142" height="19" viewBox="0 0 142 19" fill="none" xmlns="http://www.w3.org/2000/svg">
<path d="M14.5987 1.37403C14.5275 1.99742 14.474 2.6119 14.4384 3.21747C14.4206 3.80523 14.4117 4.25942 14.4117 4.58001C14.4117 4.90061 14.4206 5.21231 14.4384 5.51509C14.4562 5.80007 14.474 6.04052 14.4918 6.23644H13.8774C13.6102 4.65126 13.1382 3.54698 12.4614 2.92359C11.7846 2.3002 10.8851 1.98851 9.76302 1.98851H8.77451C8.34704 1.98851 8.00863 2.03304 7.75928 2.12209C7.52774 2.19334 7.35853 2.35364 7.25167 2.60299C7.1448 2.83453 7.09137 3.20857 7.09137 3.72509V14.6254C7.09137 15.2844 7.17152 15.792 7.33182 16.1483C7.50993 16.4867 7.80381 16.7182 8.21346 16.8429C8.64092 16.9676 9.21978 17.0477 9.95003 17.0833V17.6177C9.39789 17.5821 8.69436 17.5642 7.83943 17.5642C6.9845 17.5464 6.11176 17.5375 5.22121 17.5375C4.36628 17.5375 3.56479 17.5464 2.81672 17.5642C2.06866 17.5642 1.46309 17.5821 1 17.6177V17.0833C1.56995 17.0477 1.99742 16.9765 2.28239 16.8696C2.56737 16.7627 2.75438 16.549 2.84344 16.2284C2.95031 15.9078 3.00374 15.4269 3.00374 14.7857V4.20598C3.00374 3.54698 2.95031 3.06608 2.84344 2.76329C2.75438 2.44269 2.56737 2.22896 2.28239 2.12209C1.99742 1.99742 1.56995 1.92617 1 1.90836V1.37403C1.92617 1.39184 2.91468 1.40965 3.96553 1.42747C5.03419 1.44528 6.04052 1.45418 6.9845 1.45418C7.9463 1.45418 8.71217 1.45418 9.28212 1.45418C10.0658 1.45418 10.9475 1.45418 11.9271 1.45418C12.9245 1.43637 13.815 1.40965 14.5987 1.37403ZM10.5645 9.17526C10.5645 9.17526 10.5645 9.26431 10.5645 9.44242C10.5645 9.62053 10.5645 9.70959 10.5645 9.70959H6.28987C6.28987 9.70959 6.28987 9.62053 6.28987 9.44242C6.28987 9.26431 6.28987 9.17526 6.28987 9.17526H10.5645ZM11.6599 6.28987C11.5886 7.10918 11.553 7.75037 11.553 8.21346C11.5708 8.67655 11.5797 9.0862 11.5797 9.44242C11.5797 9.79864 11.5886 10.2083 11.6065 10.6714C11.6243 11.1345 11.6688 11.7757 11.74 12.595H11.1256C11.0721 12.0963 10.9385 11.6332 10.7248 11.2057C10.5289 10.7604 10.235 10.4042 9.84317 10.1371C9.46914 9.85208 8.97043 9.70959 8.34704 9.70959V9.17526C8.98824 9.17526 9.48695 9.01496 9.84317 8.69436C10.2172 8.35595 10.4933 7.96411 10.6714 7.51883C10.8673 7.07356 10.992 6.6639 11.0454 6.28987H11.6599Z" fill="#2B0F39"/>
<path d="M24.2275 1.37403V1.90836C23.6754 1.92617 23.2479 1.99742 22.9451 2.12209C22.6601 2.22896 22.4642 2.44269 22.3574 2.76329C22.2683 3.06608 22.2238 3.54698 22.2238 4.20598V15.1063C22.2238 15.6585 22.2772 16.0681 22.3841 16.3353C22.4909 16.6025 22.6601 16.7806 22.8917 16.8696C23.141 16.9587 23.4794 17.0032 23.9069 17.0032H24.9489C25.6791 17.0032 26.3559 16.834 26.9793 16.4956C27.6027 16.1394 28.137 15.5694 28.5823 14.7857C29.0454 14.002 29.366 12.9512 29.5441 11.6332H30.1586C30.1051 12.2031 30.0784 12.9334 30.0784 13.8239C30.0784 14.1802 30.0873 14.7145 30.1051 15.4269C30.1408 16.1394 30.1942 16.8696 30.2654 17.6177C29.3927 17.5821 28.4131 17.5642 27.3266 17.5642C26.2402 17.5464 25.2695 17.5375 24.4145 17.5375C23.8446 17.5375 23.0787 17.5375 22.1169 17.5375C21.1729 17.5375 20.1666 17.5464 19.0979 17.5642C18.0471 17.5642 17.0586 17.5821 16.1324 17.6177V17.0833C16.7024 17.0477 17.1298 16.9765 17.4148 16.8696C17.6998 16.7627 17.8868 16.549 17.9758 16.2284C18.0827 15.9078 18.1361 15.4269 18.1361 14.7857V4.20598C18.1361 3.54698 18.0827 3.06608 17.9758 2.76329C17.8868 2.44269 17.6998 2.22896 17.4148 2.12209C17.1298 1.99742 16.7024 1.92617 16.1324 1.90836V1.37403C16.5955 1.39184 17.2011 1.40965 17.9491 1.42747C18.6972 1.44528 19.4987 1.45418 20.3536 1.45418C21.0839 1.45418 21.7963 1.44528 22.4909 1.42747C23.1856 1.40965 23.7644 1.39184 24.2275 1.37403Z" fill="#2B0F39"/>
<path d="M40.7435 1C42.5425 1 44.1187 1.3295 45.4724 1.98851C46.826 2.62971 47.8769 3.57369 48.6249 4.82046C49.373 6.04942 49.747 7.55445 49.747 9.33556C49.747 11.0632 49.3641 12.5772 48.5982 13.8774C47.8323 15.1776 46.7637 16.1928 45.3922 16.923C44.0386 17.6355 42.4801 17.9917 40.7168 17.9917C38.9179 17.9917 37.3416 17.6711 35.988 17.0299C34.6344 16.3709 33.5835 15.418 32.8354 14.1712C32.0874 12.9245 31.7134 11.4194 31.7134 9.65615C31.7134 7.92849 32.0963 6.41455 32.8622 5.11434C33.6458 3.81414 34.7145 2.80782 36.0681 2.09538C37.4218 1.36513 38.9802 1 40.7435 1ZM40.6367 1.4809C39.6927 1.4809 38.8734 1.82821 38.1788 2.52284C37.4841 3.19966 36.9409 4.14364 36.549 5.35479C36.175 6.56594 35.988 7.96411 35.988 9.54929C35.988 11.1701 36.2017 12.5772 36.6292 13.7705C37.0745 14.9638 37.6622 15.89 38.3925 16.549C39.1227 17.1902 39.9331 17.5108 40.8237 17.5108C41.7677 17.5108 42.587 17.1724 43.2816 16.4956C43.994 15.801 44.5373 14.8481 44.9113 13.6369C45.2853 12.408 45.4724 11.0098 45.4724 9.44242C45.4724 7.80381 45.2497 6.39674 44.8045 5.22121C44.377 4.02787 43.7981 3.11061 43.0679 2.46941C42.3554 1.8104 41.545 1.4809 40.6367 1.4809Z" fill="#2B0F39"/>
<path d="M51.537 1.37403C51.9467 1.39184 52.481 1.40965 53.14 1.42747C53.8168 1.44528 54.4758 1.45418 55.117 1.45418C56.0076 1.45418 56.8536 1.44528 57.6551 1.42747C58.4566 1.40965 59.0265 1.40075 59.365 1.40075C61.8585 1.40075 63.6663 1.77478 64.7884 2.52284C65.9283 3.27091 66.4983 4.25942 66.4983 5.48838C66.4983 6.0049 66.3825 6.52142 66.1509 7.03793C65.9194 7.55445 65.5276 8.03535 64.9754 8.48063C64.4233 8.90809 63.6663 9.27322 62.7045 9.576C61.7427 9.86098 60.5227 10.0302 59.0444 10.0836L55.9987 10.1905C55.9987 10.1905 55.9987 10.1014 55.9987 9.92332C55.9987 9.74521 55.9987 9.65615 55.9987 9.65615H58.7772C59.739 9.65615 60.4603 9.48695 60.9412 9.14854C61.4399 8.79232 61.7783 8.32033 61.9565 7.73256C62.1346 7.1448 62.2236 6.4947 62.2236 5.78226C62.2236 4.53549 61.9832 3.5826 61.5023 2.92359C61.0392 2.24677 60.211 1.90836 59.0176 1.90836C58.4477 1.90836 58.0737 2.05976 57.8955 2.36254C57.7174 2.66533 57.6284 3.27981 57.6284 4.20598V14.7857C57.6284 15.4269 57.6729 15.9078 57.762 16.2284C57.8688 16.549 58.0648 16.7627 58.3497 16.8696C58.6525 16.9765 59.08 17.0477 59.6321 17.0833V17.6177C59.1334 17.5821 58.4833 17.5642 57.6818 17.5642C56.8981 17.5464 56.0966 17.5375 55.2773 17.5375C54.5293 17.5375 53.8168 17.5464 53.14 17.5642C52.481 17.5642 51.9467 17.5821 51.537 17.6177V17.0833C52.107 17.0477 52.5344 16.9765 52.8194 16.8696C53.1044 16.7627 53.2914 16.549 53.3805 16.2284C53.4873 15.9078 53.5408 15.4269 53.5408 14.7857V4.20598C53.5408 3.54698 53.4873 3.05717 53.3805 2.73657C53.2914 2.41598 53.1044 2.20224 52.8194 2.09538C52.5344 1.98851 52.107 1.92617 51.537 1.90836V1.37403ZM56.7735 9.86989C57.7352 9.90551 58.4655 9.93222 58.9642 9.95004C59.4807 9.96785 59.8904 9.98566 60.1932 10.0035C60.496 10.0035 60.8076 10.0302 61.1282 10.0836C62.286 10.2083 63.2656 10.4755 64.0671 10.8851C64.8686 11.277 65.3851 11.9716 65.6166 12.969L66.1777 15.3468C66.3023 15.8633 66.4537 16.2284 66.6318 16.4422C66.81 16.6381 67.0326 16.736 67.2998 16.736C67.4957 16.736 67.6916 16.6826 67.8875 16.5757C68.1013 16.4511 68.2883 16.3086 68.4486 16.1483L68.8226 16.4956C68.4308 16.9409 67.9677 17.306 67.4333 17.591C66.9168 17.8581 66.2311 17.9917 65.3762 17.9917C64.3075 17.9917 63.506 17.778 62.9717 17.3505C62.4552 16.923 62.1168 16.4154 61.9565 15.8277L61.1817 12.6751C60.9679 11.6243 60.6473 10.9475 60.2199 10.6447C59.8102 10.3419 59.2403 10.1905 58.51 10.1905H56.7735V9.86989Z" fill="#2B0F39"/>
<path d="M77.3456 1.3206L83.7041 15.3735C84.0069 15.9969 84.2919 16.4332 84.559 16.6826C84.844 16.932 85.1201 17.0655 85.3873 17.0833V17.6177C84.9776 17.5821 84.4522 17.5642 83.811 17.5642C83.1698 17.5464 82.5286 17.5375 81.8874 17.5375C81.0325 17.5375 80.2221 17.5464 79.4562 17.5642C78.7081 17.5642 78.1115 17.5821 77.6662 17.6177V17.0833C78.4677 17.0477 78.9931 16.8785 79.2425 16.5757C79.5096 16.2729 79.4473 15.6941 79.0555 14.8392L74.8075 5.14106L75.3418 4.44643L71.7886 12.5148C71.3967 13.3876 71.1563 14.1178 71.0672 14.7056C70.9781 15.2755 71.0138 15.7297 71.1741 16.0681C71.3344 16.4065 71.6015 16.6559 71.9756 16.8162C72.3496 16.9587 72.8127 17.0477 73.3648 17.0833V17.6177C72.8483 17.5821 72.3407 17.5642 71.842 17.5642C71.3611 17.5464 70.8446 17.5375 70.2924 17.5375C69.954 17.5375 69.5711 17.5464 69.1436 17.5642C68.7162 17.5642 68.3777 17.5821 68.1284 17.6177V17.0833C68.5737 16.9765 68.9744 16.7004 69.3306 16.2551C69.6869 15.792 70.0698 15.1152 70.4794 14.2247L76.1166 1.3206C76.3304 1.33841 76.5352 1.34732 76.7311 1.34732C76.9448 1.34732 77.1497 1.33841 77.3456 1.3206ZM79.2959 11.2591V11.7935H71.8687L72.1359 11.2591H79.2959Z" fill="#2B0F39"/>
<path d="M108.423 1.37403V1.90836C107.978 2.06866 107.542 2.40707 107.114 2.92359C106.705 3.44011 106.313 4.20598 105.939 5.22121L101.45 17.6711C101.254 17.6533 101.05 17.6444 100.836 17.6444C100.64 17.6444 100.435 17.6533 100.221 17.6711L94.5041 3.61822C94.2547 3.01264 93.9786 2.58518 93.6758 2.33583C93.3731 2.06866 93.0881 1.92617 92.8209 1.90836V1.37403C93.2306 1.39184 93.756 1.40965 94.3972 1.42747C95.0562 1.44528 95.6974 1.45418 96.3208 1.45418C97.1401 1.45418 97.906 1.44528 98.6184 1.42747C99.3487 1.40965 99.9364 1.39184 100.382 1.37403V1.90836C99.5624 1.94398 99.0459 2.12209 98.8321 2.44269C98.6362 2.74548 98.6897 3.31543 98.9924 4.15255L102.546 13.7171L101.931 14.572L104.496 7.33182C104.995 5.97818 105.253 4.91842 105.271 4.15255C105.289 3.36887 105.111 2.80782 104.736 2.46941C104.362 2.11319 103.846 1.92617 103.187 1.90836V1.37403C103.686 1.39184 104.175 1.40965 104.656 1.42747C105.155 1.44528 105.689 1.45418 106.259 1.45418C106.598 1.45418 106.981 1.44528 107.408 1.42747C107.836 1.40965 108.174 1.39184 108.423 1.37403ZM90.8172 1.37403V1.90836C90.1938 1.94398 89.7841 2.131 89.5882 2.46941C89.3923 2.80782 89.4457 3.36887 89.7485 4.15255L93.5156 13.6102L92.8744 14.4651L96.2941 6.10286L96.7215 6.58375L92.2866 17.6711C92.0729 17.6533 91.8591 17.6444 91.6454 17.6444C91.4495 17.6444 91.2536 17.6533 91.0576 17.6711L85.0998 3.61822C84.8149 2.97702 84.5299 2.54065 84.2449 2.30911C83.9599 2.05976 83.6839 1.92617 83.4167 1.90836V1.37403C83.8442 1.39184 84.3785 1.40965 85.0197 1.42747C85.6609 1.44528 86.2932 1.45418 86.9166 1.45418C87.7003 1.45418 88.4394 1.44528 89.134 1.42747C89.8465 1.40965 90.4075 1.39184 90.8172 1.37403Z" fill="#2B0F39"/>
<path d="M122.769 1.37403C122.698 1.99742 122.645 2.6119 122.609 3.21747C122.591 3.80523 122.582 4.25942 122.582 4.58001C122.582 4.90061 122.591 5.21231 122.609 5.51509C122.627 5.80007 122.645 6.04052 122.662 6.23644H122.048C121.781 4.65126 121.309 3.54698 120.632 2.92359C119.955 2.3002 119.056 1.98851 117.934 1.98851H116.945C116.518 1.98851 116.179 2.03304 115.93 2.12209C115.698 2.19334 115.529 2.35364 115.422 2.60299C115.315 2.83453 115.262 3.20857 115.262 3.72509V15.2666C115.262 15.7653 115.315 16.1394 115.422 16.3887C115.529 16.6381 115.698 16.8073 115.93 16.8963C116.179 16.9676 116.518 17.0032 116.945 17.0032H118.094C118.913 17.0032 119.626 16.8518 120.231 16.549C120.837 16.2462 121.336 15.7475 121.727 15.0529C122.119 14.3405 122.404 13.3965 122.582 12.2209H123.197C123.143 12.7196 123.117 13.3608 123.117 14.1445C123.117 14.4829 123.126 14.9816 123.143 15.6407C123.179 16.2819 123.232 16.9409 123.304 17.6177C122.431 17.5821 121.451 17.5642 120.365 17.5642C119.278 17.5464 118.308 17.5375 117.453 17.5375C116.883 17.5375 116.117 17.5375 115.155 17.5375C114.211 17.5375 113.205 17.5464 112.136 17.5642C111.085 17.5642 110.097 17.5821 109.171 17.6177V17.0833C109.741 17.0477 110.168 16.9765 110.453 16.8696C110.738 16.7627 110.925 16.549 111.014 16.2284C111.121 15.9078 111.174 15.4269 111.174 14.7857V4.20598C111.174 3.54698 111.121 3.06608 111.014 2.76329C110.925 2.44269 110.738 2.22896 110.453 2.12209C110.168 1.99742 109.741 1.92617 109.171 1.90836V1.37403C110.097 1.39184 111.085 1.40965 112.136 1.42747C113.205 1.44528 114.211 1.45418 115.155 1.45418C116.117 1.45418 116.883 1.45418 117.453 1.45418C118.236 1.45418 119.118 1.45418 120.098 1.45418C121.095 1.43637 121.986 1.40965 122.769 1.37403ZM118.735 9.17526C118.735 9.17526 118.735 9.26431 118.735 9.44242C118.735 9.62053 118.735 9.70959 118.735 9.70959H114.46C114.46 9.70959 114.46 9.62053 114.46 9.44242C114.46 9.26431 114.46 9.17526 114.46 9.17526H118.735ZM119.83 6.28987C119.759 7.10918 119.724 7.75037 119.724 8.21346C119.741 8.67655 119.75 9.0862 119.75 9.44242C119.75 9.79864 119.759 10.2083 119.777 10.6714C119.795 11.1345 119.839 11.7757 119.911 12.595H119.296C119.243 12.0963 119.109 11.6332 118.895 11.2057C118.699 10.7604 118.406 10.4042 118.014 10.1371C117.64 9.85208 117.141 9.70959 116.518 9.70959V9.17526C117.159 9.17526 117.658 9.01496 118.014 8.69436C118.388 8.35595 118.664 7.96411 118.842 7.51883C119.038 7.07356 119.163 6.6639 119.216 6.28987H119.83Z" fill="#2B0F39"/>
<path d="M125.451 1.37403C125.861 1.39184 126.395 1.40965 127.054 1.42747C127.731 1.44528 128.39 1.45418 129.031 1.45418C129.922 1.45418 130.768 1.44528 131.569 1.42747C132.371 1.40965 132.941 1.40075 133.279 1.40075C135.487 1.40075 137.09 1.72135 138.088 2.36254C139.103 3.00374 139.611 3.9032 139.611 5.06091C139.611 5.93365 139.255 6.69953 138.542 7.35853C137.83 8.01754 136.601 8.53406 134.855 8.90809V8.96152C136.458 9.12182 137.705 9.4157 138.596 9.84317C139.486 10.2706 140.109 10.7782 140.466 11.366C140.822 11.936 141 12.5593 141 13.2362C141 14.5898 140.386 15.6585 139.157 16.4422C137.945 17.2258 136.191 17.6177 133.893 17.6177C133.484 17.6177 132.869 17.6088 132.05 17.591C131.231 17.5553 130.242 17.5375 129.084 17.5375C128.408 17.5375 127.731 17.5464 127.054 17.5642C126.395 17.5642 125.861 17.5821 125.451 17.6177V17.0833C126.021 17.0477 126.448 16.9765 126.733 16.8696C127.018 16.7627 127.205 16.549 127.294 16.2284C127.401 15.9078 127.455 15.4269 127.455 14.7857V4.20598C127.455 3.54698 127.401 3.05717 127.294 2.73657C127.205 2.41598 127.018 2.20224 126.733 2.09538C126.448 1.98851 126.021 1.92617 125.451 1.90836V1.37403ZM132.932 1.90836C132.362 1.90836 131.988 2.05976 131.81 2.36254C131.631 2.66533 131.542 3.27981 131.542 4.20598V14.7857C131.542 15.4091 131.578 15.8811 131.649 16.2017C131.72 16.5223 131.854 16.736 132.05 16.8429C132.264 16.9498 132.566 17.0032 132.958 17.0032C134.294 17.0032 135.256 16.6737 135.844 16.0147C136.431 15.3379 136.725 14.3761 136.725 13.1293C136.725 11.9182 136.423 10.992 135.817 10.3508C135.229 9.69178 134.25 9.36227 132.878 9.36227H130.394C130.394 9.36227 130.394 9.29103 130.394 9.14854C130.394 8.98824 130.394 8.90809 130.394 8.90809H132.424C133.243 8.90809 133.867 8.7567 134.294 8.45391C134.722 8.13331 135.015 7.70585 135.176 7.17152C135.354 6.61938 135.443 6.0138 135.443 5.35479C135.443 4.2327 135.247 3.37777 134.855 2.79001C134.481 2.20224 133.84 1.90836 132.932 1.90836Z" fill="#2B0F39"/>
<path d="M42.8668 7.44244C42.2911 7.44244 41.7558 7.62413 41.3154 7.93301C41.1375 8.05777 40.9751 8.20328 40.8317 8.36595C40.41 8.84455 40.1534 9.47168 40.1534 10.1558V10.8342C40.1534 11.2073 40.4586 11.5125 40.8317 11.5125C42.1375 11.5125 43.2059 10.4441 43.2059 9.13831V7.78161C43.2059 7.59507 43.0533 7.44244 42.8668 7.44244Z" fill="#2B0F39"/>
<path d="M38.7967 7.44244C39.3724 7.44244 39.9077 7.62413 40.3481 7.93301C40.526 8.05777 40.6884 8.20328 40.8317 8.36595C41.2535 8.84455 41.5101 9.47168 41.5101 10.1558V10.8342C41.5101 11.2073 41.2048 11.5125 40.8317 11.5125C39.5259 11.5125 38.4575 10.4441 38.4575 9.13831V7.78161C38.4575 7.59507 38.6101 7.44244 38.7967 7.44244Z" fill="#2B0F39"/>
<path d="M40.9007 15.3217C40.7142 15.3217 40.5615 15.1691 40.5615 14.9826C40.5615 13.6767 41.6299 12.6083 42.9358 12.6083C43.1223 12.6083 43.2749 12.761 43.2749 12.9475C43.2749 14.2533 42.2065 15.3217 40.9007 15.3217Z" fill="#2B0F39"/>
<path fill-rule="evenodd" clip-rule="evenodd" d="M39.1358 8.79914C39.1358 9.73187 39.899 10.495 40.8317 10.495C41.7645 10.495 42.5276 9.73187 42.5276 8.79914V7.10327C42.5276 6.91672 42.375 6.76409 42.1884 6.76409C41.6685 6.76409 41.1924 6.96171 40.8317 7.28555C40.471 6.96171 39.995 6.76409 39.475 6.76409C39.2885 6.76409 39.1358 6.91672 39.1358 7.10327V8.79914ZM40.8317 7.28555C41.033 7.46622 41.1983 7.68617 41.3154 7.93301C41.1375 8.05777 40.9751 8.20328 40.8317 8.36595C40.6884 8.20328 40.526 8.05777 40.3481 7.93301C40.4651 7.68617 40.6305 7.46622 40.8317 7.28555Z" fill="#2B0F39"/>
<path d="M41.3154 7.93301C41.1983 7.68617 41.033 7.46622 40.8317 7.28555C40.6305 7.46622 40.4651 7.68617 40.3481 7.93301C40.526 8.05777 40.6884 8.20328 40.8317 8.36595C40.9751 8.20328 41.1375 8.05777 41.3154 7.93301Z" fill="#2B0F39"/>
<path d="M40.8317 10.495C41.7645 10.495 42.5276 9.73187 42.5276 8.79914V7.10327C42.5276 6.91672 42.375 6.76409 42.1884 6.76409C41.6685 6.76409 41.1924 6.96171 40.8317 7.28555M40.8317 10.495C40.4586 10.495 40.1534 10.1898 40.1534 9.81666V8.79914C40.1534 8.48988 40.2233 8.19617 40.3481 7.93301M40.8317 10.495C39.899 10.495 39.1358 9.73187 39.1358 8.79914V7.10327C39.1358 6.91672 39.2885 6.76409 39.475 6.76409C39.995 6.76409 40.471 6.96171 40.8317 7.28555M40.8317 10.495C41.2048 10.495 41.5101 10.1898 41.5101 9.81666V8.79914C41.5101 8.48988 41.4402 8.19617 41.3154 7.93301M40.8317 11.5125C40.4586 11.5125 40.1534 11.2073 40.1534 10.8342V10.1558C40.1534 9.47168 40.41 8.84455 40.8317 8.36595M40.8317 11.5125C42.1375 11.5125 43.2059 10.4441 43.2059 9.13831V7.78161C43.2059 7.59507 43.0533 7.44244 42.8668 7.44244C42.2911 7.44244 41.7558 7.62413 41.3154 7.93301M40.8317 11.5125C41.2048 11.5125 41.5101 11.2073 41.5101 10.8342V10.1558C41.5101 9.47168 41.2535 8.84455 40.8317 8.36595M40.8317 11.5125C39.5259 11.5125 38.4575 10.4441 38.4575 9.13831V7.78161C38.4575 7.59507 38.6101 7.44244 38.7967 7.44244C39.3724 7.44244 39.9077 7.62413 40.3481 7.93301M40.623 11.356L40.5186 17.5133M40.8317 7.28555C41.033 7.46622 41.1983 7.68617 41.3154 7.93301M40.8317 7.28555C40.6305 7.46622 40.4651 7.68617 40.3481 7.93301M41.3154 7.93301C41.1375 8.05777 40.9751 8.20328 40.8317 8.36595M40.8317 8.36595C40.6884 8.20328 40.526 8.05777 40.3481 7.93301M14.5987 1.37403C14.5275 1.99742 14.474 2.6119 14.4384 3.21747C14.4206 3.80523 14.4117 4.25942 14.4117 4.58001C14.4117 4.90061 14.4206 5.21231 14.4384 5.51509C14.4562 5.80007 14.474 6.04052 14.4918 6.23644H13.8774C13.6102 4.65126 13.1382 3.54698 12.4614 2.92359C11.7846 2.3002 10.8851 1.98851 9.76302 1.98851H8.77451C8.34704 1.98851 8.00863 2.03304 7.75928 2.12209C7.52774 2.19334 7.35853 2.35364 7.25167 2.60299C7.1448 2.83453 7.09137 3.20857 7.09137 3.72509V14.6254C7.09137 15.2844 7.17152 15.792 7.33182 16.1483C7.50993 16.4867 7.80381 16.7182 8.21346 16.8429C8.64092 16.9676 9.21978 17.0477 9.95003 17.0833V17.6177C9.39789 17.5821 8.69436 17.5642 7.83943 17.5642C6.9845 17.5464 6.11176 17.5375 5.22121 17.5375C4.36628 17.5375 3.56479 17.5464 2.81672 17.5642C2.06866 17.5642 1.46309 17.5821 1 17.6177V17.0833C1.56995 17.0477 1.99742 16.9765 2.28239 16.8696C2.56737 16.7627 2.75438 16.549 2.84344 16.2284C2.95031 15.9078 3.00374 15.4269 3.00374 14.7857V4.20598C3.00374 3.54698 2.95031 3.06608 2.84344 2.76329C2.75438 2.44269 2.56737 2.22896 2.28239 2.12209C1.99742 1.99742 1.56995 1.92617 1 1.90836V1.37403C1.92617 1.39184 2.91468 1.40965 3.96553 1.42747C5.03419 1.44528 6.04052 1.45418 6.9845 1.45418C7.9463 1.45418 8.71217 1.45418 9.28212 1.45418C10.0658 1.45418 10.9475 1.45418 11.9271 1.45418C12.9245 1.43637 13.815 1.40965 14.5987 1.37403ZM10.5645 9.17526C10.5645 9.17526 10.5645 9.26431 10.5645 9.44242C10.5645 9.62053 10.5645 9.70959 10.5645 9.70959H6.28987C6.28987 9.70959 6.28987 9.62053 6.28987 9.44242C6.28987 9.26431 6.28987 9.17526 6.28987 9.17526H10.5645ZM11.6599 6.28987C11.5886 7.10918 11.553 7.75038 11.553 8.21346C11.5708 8.67655 11.5797 9.0862 11.5797 9.44242C11.5797 9.79864 11.5886 10.2083 11.6065 10.6714C11.6243 11.1345 11.6688 11.7757 11.74 12.595H11.1256C11.0721 12.0963 10.9385 11.6332 10.7248 11.2057C10.5289 10.7604 10.235 10.4042 9.84317 10.1371C9.46914 9.85208 8.97043 9.70959 8.34704 9.70959V9.17526C8.98824 9.17526 9.48695 9.01496 9.84317 8.69436C10.2172 8.35595 10.4933 7.96411 10.6714 7.51883C10.8673 7.07356 10.992 6.6639 11.0454 6.28987H11.6599ZM24.2275 1.37403V1.90836C23.6754 1.92617 23.2479 1.99742 22.9451 2.12209C22.6601 2.22896 22.4642 2.44269 22.3574 2.76329C22.2683 3.06608 22.2238 3.54698 22.2238 4.20598V15.1063C22.2238 15.6585 22.2772 16.0681 22.3841 16.3353C22.4909 16.6025 22.6601 16.7806 22.8917 16.8696C23.141 16.9587 23.4794 17.0032 23.9069 17.0032H24.9489C25.6791 17.0032 26.3559 16.834 26.9793 16.4956C27.6027 16.1394 28.137 15.5694 28.5823 14.7857C29.0454 14.002 29.366 12.9512 29.5441 11.6332H30.1586C30.1051 12.2031 30.0784 12.9334 30.0784 13.8239C30.0784 14.1802 30.0873 14.7145 30.1051 15.4269C30.1408 16.1394 30.1942 16.8696 30.2654 17.6177C29.3927 17.5821 28.4131 17.5642 27.3266 17.5642C26.2402 17.5464 25.2695 17.5375 24.4145 17.5375C23.8446 17.5375 23.0787 17.5375 22.1169 17.5375C21.1729 17.5375 20.1666 17.5464 19.0979 17.5642C18.0471 17.5642 17.0586 17.5821 16.1324 17.6177V17.0833C16.7024 17.0477 17.1298 16.9765 17.4148 16.8696C17.6998 16.7627 17.8868 16.549 17.9758 16.2284C18.0827 15.9078 18.1361 15.4269 18.1361 14.7857V4.20598C18.1361 3.54698 18.0827 3.06608 17.9758 2.76329C17.8868 2.44269 17.6998 2.22896 17.4148 2.12209C17.1298 1.99742 16.7024 1.92617 16.1324 1.90836V1.37403C16.5955 1.39184 17.2011 1.40965 17.9491 1.42747C18.6972 1.44528 19.4987 1.45418 20.3536 1.45418C21.0839 1.45418 21.7963 1.44528 22.4909 1.42747C23.1856 1.40965 23.7644 1.39184 24.2275 1.37403ZM40.7435 1C42.5425 1 44.1187 1.3295 45.4724 1.98851C46.826 2.62971 47.8768 3.57369 48.6249 4.82046C49.373 6.04942 49.747 7.55445 49.747 9.33556C49.747 11.0632 49.3641 12.5772 48.5982 13.8774C47.8323 15.1776 46.7637 16.1928 45.3922 16.923C44.0386 17.6355 42.4801 17.9917 40.7168 17.9917C38.9179 17.9917 37.3416 17.6711 35.988 17.0299C34.6344 16.3709 33.5835 15.418 32.8354 14.1712C32.0874 12.9245 31.7134 11.4194 31.7134 9.65615C31.7134 7.92849 32.0963 6.41455 32.8622 5.11434C33.6458 3.81414 34.7145 2.80782 36.0681 2.09538C37.4218 1.36513 38.9802 1 40.7435 1ZM40.6367 1.4809C39.6927 1.4809 38.8734 1.82821 38.1788 2.52284C37.4841 3.19966 36.9409 4.14364 36.549 5.35479C36.175 6.56594 35.988 7.96411 35.988 9.54929C35.988 11.1701 36.2017 12.5772 36.6292 13.7705C37.0745 14.9638 37.6622 15.89 38.3925 16.549C39.1227 17.1902 39.9331 17.5108 40.8237 17.5108C41.7677 17.5108 42.587 17.1724 43.2816 16.4956C43.994 15.801 44.5373 14.8481 44.9113 13.6369C45.2853 12.408 45.4724 11.0098 45.4724 9.44242C45.4724 7.80381 45.2497 6.39674 44.8044 5.22121C44.377 4.02787 43.7981 3.11061 43.0679 2.46941C42.3554 1.8104 41.545 1.4809 40.6367 1.4809ZM51.537 1.37403C51.9467 1.39184 52.481 1.40965 53.14 1.42747C53.8168 1.44528 54.4758 1.45418 55.117 1.45418C56.0076 1.45418 56.8536 1.44528 57.6551 1.42747C58.4566 1.40965 59.0265 1.40075 59.365 1.40075C61.8585 1.40075 63.6663 1.77478 64.7884 2.52284C65.9283 3.27091 66.4983 4.25942 66.4983 5.48838C66.4983 6.0049 66.3825 6.52142 66.1509 7.03793C65.9194 7.55445 65.5276 8.03535 64.9754 8.48063C64.4233 8.90809 63.6663 9.27322 62.7045 9.576C61.7427 9.86098 60.5227 10.0302 59.0444 10.0836L55.9987 10.1905C55.9987 10.1905 55.9987 10.1014 55.9987 9.92332C55.9987 9.74521 55.9987 9.65615 55.9987 9.65615H58.7772C59.739 9.65615 60.4603 9.48695 60.9412 9.14854C61.4399 8.79232 61.7783 8.32033 61.9565 7.73256C62.1346 7.1448 62.2236 6.4947 62.2236 5.78226C62.2236 4.53549 61.9832 3.5826 61.5023 2.92359C61.0392 2.24677 60.211 1.90836 59.0176 1.90836C58.4477 1.90836 58.0737 2.05976 57.8955 2.36254C57.7174 2.66533 57.6284 3.27981 57.6284 4.20598V14.7857C57.6284 15.4269 57.6729 15.9078 57.762 16.2284C57.8688 16.549 58.0648 16.7627 58.3497 16.8696C58.6525 16.9765 59.08 17.0477 59.6321 17.0833V17.6177C59.1334 17.5821 58.4833 17.5642 57.6818 17.5642C56.8981 17.5464 56.0966 17.5375 55.2773 17.5375C54.5293 17.5375 53.8168 17.5464 53.14 17.5642C52.481 17.5642 51.9467 17.5821 51.537 17.6177V17.0833C52.107 17.0477 52.5344 16.9765 52.8194 16.8696C53.1044 16.7627 53.2914 16.549 53.3805 16.2284C53.4873 15.9078 53.5408 15.4269 53.5408 14.7857V4.20598C53.5408 3.54698 53.4873 3.05717 53.3805 2.73657C53.2914 2.41598 53.1044 2.20224 52.8194 2.09538C52.5344 1.98851 52.107 1.92617 51.537 1.90836V1.37403ZM56.7735 9.86989C57.7352 9.90551 58.4655 9.93222 58.9642 9.95004C59.4807 9.96785 59.8904 9.98566 60.1932 10.0035C60.496 10.0035 60.8076 10.0302 61.1282 10.0836C62.286 10.2083 63.2656 10.4755 64.0671 10.8851C64.8686 11.277 65.3851 11.9716 65.6166 12.969L66.1777 15.3468C66.3023 15.8633 66.4537 16.2284 66.6318 16.4422C66.81 16.6381 67.0326 16.736 67.2998 16.736C67.4957 16.736 67.6916 16.6826 67.8875 16.5757C68.1013 16.4511 68.2883 16.3086 68.4486 16.1483L68.8226 16.4956C68.4308 16.9409 67.9677 17.306 67.4333 17.591C66.9168 17.8581 66.2311 17.9917 65.3762 17.9917C64.3075 17.9917 63.506 17.778 62.9717 17.3505C62.4552 16.923 62.1168 16.4154 61.9565 15.8277L61.1817 12.6751C60.9679 11.6243 60.6473 10.9475 60.2199 10.6447C59.8102 10.3419 59.2403 10.1905 58.51 10.1905H56.7735V9.86989ZM77.3456 1.3206L83.7041 15.3735C84.0069 15.9969 84.2919 16.4332 84.559 16.6826C84.844 16.932 85.1201 17.0655 85.3873 17.0833V17.6177C84.9776 17.5821 84.4522 17.5642 83.811 17.5642C83.1698 17.5464 82.5286 17.5375 81.8874 17.5375C81.0325 17.5375 80.2221 17.5464 79.4562 17.5642C78.7081 17.5642 78.1115 17.5821 77.6662 17.6177V17.0833C78.4677 17.0477 78.9931 16.8785 79.2425 16.5757C79.5096 16.2729 79.4473 15.6941 79.0554 14.8392L74.8075 5.14106L75.3418 4.44643L71.7886 12.5148C71.3967 13.3876 71.1563 14.1178 71.0672 14.7056C70.9782 15.2755 71.0138 15.7297 71.1741 16.0681C71.3344 16.4065 71.6015 16.6559 71.9756 16.8162C72.3496 16.9587 72.8127 17.0477 73.3648 17.0833V17.6177C72.8483 17.5821 72.3407 17.5642 71.842 17.5642C71.3611 17.5464 70.8446 17.5375 70.2924 17.5375C69.954 17.5375 69.5711 17.5464 69.1436 17.5642C68.7162 17.5642 68.3777 17.5821 68.1284 17.6177V17.0833C68.5737 16.9765 68.9744 16.7004 69.3306 16.2551C69.6869 15.792 70.0698 15.1152 70.4794 14.2247L76.1166 1.3206C76.3304 1.33841 76.5352 1.34732 76.7311 1.34732C76.9448 1.34732 77.1497 1.33841 77.3456 1.3206ZM79.2959 11.2591V11.7935H71.8687L72.1359 11.2591H79.2959ZM108.423 1.37403V1.90836C107.978 2.06866 107.542 2.40707 107.114 2.92359C106.705 3.44011 106.313 4.20598 105.939 5.22121L101.45 17.6711C101.254 17.6533 101.05 17.6444 100.836 17.6444C100.64 17.6444 100.435 17.6533 100.221 17.6711L94.5041 3.61822C94.2547 3.01264 93.9786 2.58518 93.6759 2.33583C93.3731 2.06866 93.0881 1.92617 92.8209 1.90836V1.37403C93.2306 1.39184 93.756 1.40965 94.3972 1.42747C95.0562 1.44528 95.6974 1.45418 96.3208 1.45418C97.1401 1.45418 97.906 1.44528 98.6184 1.42747C99.3487 1.40965 99.9364 1.39184 100.382 1.37403V1.90836C99.5624 1.94398 99.0459 2.12209 98.8321 2.44269C98.6362 2.74548 98.6897 3.31543 98.9924 4.15255L102.546 13.7171L101.931 14.572L104.496 7.33182C104.995 5.97818 105.253 4.91842 105.271 4.15255C105.289 3.36887 105.111 2.80782 104.736 2.46941C104.362 2.11319 103.846 1.92617 103.187 1.90836V1.37403C103.686 1.39184 104.175 1.40965 104.656 1.42747C105.155 1.44528 105.689 1.45418 106.259 1.45418C106.598 1.45418 106.981 1.44528 107.408 1.42747C107.836 1.40965 108.174 1.39184 108.423 1.37403ZM90.8172 1.37403V1.90836C90.1938 1.94398 89.7841 2.131 89.5882 2.46941C89.3923 2.80782 89.4457 3.36887 89.7485 4.15255L93.5156 13.6102L92.8744 14.4651L96.2941 6.10286L96.7215 6.58375L92.2866 17.6711C92.0729 17.6533 91.8591 17.6444 91.6454 17.6444C91.4495 17.6444 91.2536 17.6533 91.0576 17.6711L85.0998 3.61822C84.8149 2.97702 84.5299 2.54065 84.2449 2.30911C83.9599 2.05976 83.6839 1.92617 83.4167 1.90836V1.37403C83.8442 1.39184 84.3785 1.40965 85.0197 1.42747C85.6609 1.44528 86.2932 1.45418 86.9166 1.45418C87.7003 1.45418 88.4394 1.44528 89.134 1.42747C89.8465 1.40965 90.4075 1.39184 90.8172 1.37403ZM122.769 1.37403C122.698 1.99742 122.645 2.6119 122.609 3.21747C122.591 3.80523 122.582 4.25942 122.582 4.58001C122.582 4.90061 122.591 5.21231 122.609 5.51509C122.627 5.80007 122.645 6.04052 122.662 6.23644H122.048C121.781 4.65126 121.309 3.54698 120.632 2.92359C119.955 2.3002 119.056 1.98851 117.934 1.98851H116.945C116.518 1.98851 116.179 2.03304 115.93 2.12209C115.698 2.19334 115.529 2.35364 115.422 2.60299C115.315 2.83453 115.262 3.20857 115.262 3.72509V15.2666C115.262 15.7653 115.315 16.1394 115.422 16.3887C115.529 16.6381 115.698 16.8073 115.93 16.8963C116.179 16.9676 116.518 17.0032 116.945 17.0032H118.094C118.913 17.0032 119.626 16.8518 120.231 16.549C120.837 16.2462 121.336 15.7475 121.727 15.0529C122.119 14.3405 122.404 13.3965 122.582 12.2209H123.197C123.143 12.7196 123.117 13.3608 123.117 14.1445C123.117 14.4829 123.126 14.9816 123.143 15.6407C123.179 16.2819 123.232 16.9409 123.304 17.6177C122.431 17.5821 121.451 17.5642 120.365 17.5642C119.278 17.5464 118.308 17.5375 117.453 17.5375C116.883 17.5375 116.117 17.5375 115.155 17.5375C114.211 17.5375 113.205 17.5464 112.136 17.5642C111.085 17.5642 110.097 17.5821 109.171 17.6177V17.0833C109.741 17.0477 110.168 16.9765 110.453 16.8696C110.738 16.7627 110.925 16.549 111.014 16.2284C111.121 15.9078 111.174 15.4269 111.174 14.7857V4.20598C111.174 3.54698 111.121 3.06608 111.014 2.76329C110.925 2.44269 110.738 2.22896 110.453 2.12209C110.168 1.99742 109.741 1.92617 109.171 1.90836V1.37403C110.097 1.39184 111.085 1.40965 112.136 1.42747C113.205 1.44528 114.211 1.45418 115.155 1.45418C116.117 1.45418 116.883 1.45418 117.453 1.45418C118.236 1.45418 119.118 1.45418 120.098 1.45418C121.095 1.43637 121.986 1.40965 122.769 1.37403ZM118.735 9.17526C118.735 9.17526 118.735 9.26431 118.735 9.44242C118.735 9.62053 118.735 9.70959 118.735 9.70959H114.46C114.46 9.70959 114.46 9.62053 114.46 9.44242C114.46 9.26431 114.46 9.17526 114.46 9.17526H118.735ZM119.83 6.28987C119.759 7.10918 119.724 7.75038 119.724 8.21346C119.741 8.67655 119.75 9.0862 119.75 9.44242C119.75 9.79864 119.759 10.2083 119.777 10.6714C119.795 11.1345 119.839 11.7757 119.911 12.595H119.296C119.243 12.0963 119.109 11.6332 118.895 11.2057C118.699 10.7604 118.406 10.4042 118.014 10.1371C117.64 9.85208 117.141 9.70959 116.518 9.70959V9.17526C117.159 9.17526 117.658 9.01496 118.014 8.69436C118.388 8.35595 118.664 7.96411 118.842 7.51883C119.038 7.07356 119.163 6.6639 119.216 6.28987H119.83ZM125.451 1.37403C125.861 1.39184 126.395 1.40965 127.054 1.42747C127.731 1.44528 128.39 1.45418 129.031 1.45418C129.922 1.45418 130.768 1.44528 131.569 1.42747C132.371 1.40965 132.941 1.40075 133.279 1.40075C135.487 1.40075 137.09 1.72135 138.088 2.36254C139.103 3.00374 139.611 3.9032 139.611 5.06091C139.611 5.93365 139.255 6.69953 138.542 7.35853C137.83 8.01754 136.601 8.53406 134.855 8.90809V8.96152C136.458 9.12182 137.705 9.4157 138.596 9.84317C139.486 10.2706 140.109 10.7782 140.466 11.366C140.822 11.936 141 12.5593 141 13.2362C141 14.5898 140.386 15.6585 139.157 16.4422C137.945 17.2258 136.191 17.6177 133.893 17.6177C133.484 17.6177 132.869 17.6088 132.05 17.591C131.231 17.5553 130.242 17.5375 129.084 17.5375C128.408 17.5375 127.731 17.5464 127.054 17.5642C126.395 17.5642 125.861 17.5821 125.451 17.6177V17.0833C126.021 17.0477 126.448 16.9765 126.733 16.8696C127.018 16.7627 127.205 16.549 127.294 16.2284C127.401 15.9078 127.455 15.4269 127.455 14.7857V4.20598C127.455 3.54698 127.401 3.05717 127.294 2.73657C127.205 2.41598 127.018 2.20224 126.733 2.09538C126.448 1.98851 126.021 1.92617 125.451 1.90836V1.37403ZM132.932 1.90836C132.362 1.90836 131.988 2.05976 131.81 2.36254C131.631 2.66533 131.542 3.27981 131.542 4.20598V14.7857C131.542 15.4091 131.578 15.8811 131.649 16.2017C131.72 16.5223 131.854 16.736 132.05 16.8429C132.264 16.9498 132.566 17.0032 132.958 17.0032C134.294 17.0032 135.256 16.6737 135.844 16.0147C136.431 15.3379 136.725 14.3761 136.725 13.1293C136.725 11.9182 136.423 10.992 135.817 10.3508C135.229 9.69178 134.25 9.36227 132.878 9.36227H130.394C130.394 9.36227 130.394 9.29103 130.394 9.14854C130.394 8.98824 130.394 8.90809 130.394 8.90809H132.424C133.243 8.90809 133.867 8.7567 134.294 8.45391C134.722 8.13331 135.015 7.70585 135.176 7.17152C135.354 6.61938 135.443 6.0138 135.443 5.35479C135.443 4.2327 135.247 3.37777 134.855 2.79001C134.481 2.20224 133.84 1.90836 132.932 1.90836ZM40.9007 15.3217C40.7142 15.3217 40.5615 15.1691 40.5615 14.9826C40.5615 13.6767 41.6299 12.6083 42.9358 12.6083C43.1223 12.6083 43.2749 12.761 43.2749 12.9475C43.2749 14.2533 42.2065 15.3217 40.9007 15.3217Z" stroke="#2B0F39" stroke-width="0.5"/>
</svg>
