<svg width="141" height="19" viewBox="0 0 141 19" fill="none" xmlns="http://www.w3.org/2000/svg">
<path d="M13.5987 1.37403C13.5275 1.99742 13.474 2.6119 13.4384 3.21747C13.4206 3.80523 13.4117 4.25942 13.4117 4.58001C13.4117 4.90061 13.4206 5.21231 13.4384 5.51509C13.4562 5.80007 13.474 6.04052 13.4918 6.23644H12.8774C12.6102 4.65126 12.1382 3.54698 11.4614 2.92359C10.7846 2.3002 9.88511 1.98851 8.76302 1.98851H7.77451C7.34704 1.98851 7.00863 2.03304 6.75928 2.12209C6.52774 2.19334 6.35853 2.35364 6.25167 2.60299C6.1448 2.83453 6.09137 3.20857 6.09137 3.72509V14.6254C6.09137 15.2844 6.17152 15.792 6.33182 16.1483C6.50993 16.4867 6.80381 16.7182 7.21346 16.8429C7.64092 16.9676 8.21978 17.0477 8.95003 17.0833V17.6177C8.39789 17.5821 7.69436 17.5642 6.83943 17.5642C5.9845 17.5464 5.11176 17.5375 4.22121 17.5375C3.36628 17.5375 2.56479 17.5464 1.81672 17.5642C1.06866 17.5642 0.463086 17.5821 0 17.6177V17.0833C0.569952 17.0477 0.997417 16.9765 1.28239 16.8696C1.56737 16.7627 1.75438 16.549 1.84344 16.2284C1.95031 15.9078 2.00374 15.4269 2.00374 14.7857V4.20598C2.00374 3.54698 1.95031 3.06608 1.84344 2.76329C1.75438 2.44269 1.56737 2.22896 1.28239 2.12209C0.997417 1.99742 0.569952 1.92617 0 1.90836V1.37403C0.926173 1.39184 1.91468 1.40965 2.96553 1.42747C4.03419 1.44528 5.04052 1.45418 5.9845 1.45418C6.9463 1.45418 7.71217 1.45418 8.28212 1.45418C9.06581 1.45418 9.94745 1.45418 10.9271 1.45418C11.9245 1.43637 12.815 1.40965 13.5987 1.37403ZM9.56451 9.17526C9.56451 9.17526 9.56451 9.26431 9.56451 9.44242C9.56451 9.62053 9.56451 9.70959 9.56451 9.70959H5.28987C5.28987 9.70959 5.28987 9.62053 5.28987 9.44242C5.28987 9.26431 5.28987 9.17526 5.28987 9.17526H9.56451ZM10.6599 6.28987C10.5886 7.10918 10.553 7.75037 10.553 8.21346C10.5708 8.67655 10.5797 9.0862 10.5797 9.44242C10.5797 9.79864 10.5886 10.2083 10.6065 10.6714C10.6243 11.1345 10.6688 11.7757 10.74 12.595H10.1256C10.0721 12.0963 9.93855 11.6332 9.72481 11.2057C9.52889 10.7604 9.23501 10.4042 8.84317 10.1371C8.46914 9.85208 7.97043 9.70959 7.34704 9.70959V9.17526C7.98824 9.17526 8.48695 9.01496 8.84317 8.69436C9.2172 8.35595 9.49327 7.96411 9.67138 7.51883C9.8673 7.07356 9.99198 6.6639 10.0454 6.28987H10.6599Z" fill="#E2DBD4"/>
<path d="M23.2275 1.37403V1.90836C22.6754 1.92617 22.2479 1.99742 21.9451 2.12209C21.6601 2.22896 21.4642 2.44269 21.3574 2.76329C21.2683 3.06608 21.2238 3.54698 21.2238 4.20598V15.1063C21.2238 15.6585 21.2772 16.0681 21.3841 16.3353C21.4909 16.6025 21.6601 16.7806 21.8917 16.8696C22.141 16.9587 22.4794 17.0032 22.9069 17.0032H23.9489C24.6791 17.0032 25.3559 16.834 25.9793 16.4956C26.6027 16.1394 27.137 15.5694 27.5823 14.7857C28.0454 14.002 28.366 12.9512 28.5441 11.6332H29.1586C29.1051 12.2031 29.0784 12.9334 29.0784 13.8239C29.0784 14.1802 29.0873 14.7145 29.1051 15.4269C29.1408 16.1394 29.1942 16.8696 29.2654 17.6177C28.3927 17.5821 27.4131 17.5642 26.3266 17.5642C25.2402 17.5464 24.2695 17.5375 23.4145 17.5375C22.8446 17.5375 22.0787 17.5375 21.1169 17.5375C20.1729 17.5375 19.1666 17.5464 18.0979 17.5642C17.0471 17.5642 16.0586 17.5821 15.1324 17.6177V17.0833C15.7024 17.0477 16.1298 16.9765 16.4148 16.8696C16.6998 16.7627 16.8868 16.549 16.9758 16.2284C17.0827 15.9078 17.1361 15.4269 17.1361 14.7857V4.20598C17.1361 3.54698 17.0827 3.06608 16.9758 2.76329C16.8868 2.44269 16.6998 2.22896 16.4148 2.12209C16.1298 1.99742 15.7024 1.92617 15.1324 1.90836V1.37403C15.5955 1.39184 16.2011 1.40965 16.9491 1.42747C17.6972 1.44528 18.4987 1.45418 19.3536 1.45418C20.0839 1.45418 20.7963 1.44528 21.4909 1.42747C22.1856 1.40965 22.7644 1.39184 23.2275 1.37403Z" fill="#E2DBD4"/>
<path d="M39.7435 1C41.5425 1 43.1187 1.3295 44.4724 1.98851C45.826 2.62971 46.8769 3.57369 47.6249 4.82046C48.373 6.04942 48.747 7.55445 48.747 9.33556C48.747 11.0632 48.3641 12.5772 47.5982 13.8774C46.8323 15.1776 45.7637 16.1928 44.3922 16.923C43.0386 17.6355 41.4801 17.9917 39.7168 17.9917C37.9179 17.9917 36.3416 17.6711 34.988 17.0299C33.6344 16.3709 32.5835 15.418 31.8354 14.1712C31.0874 12.9245 30.7134 11.4194 30.7134 9.65615C30.7134 7.92849 31.0963 6.41455 31.8622 5.11434C32.6458 3.81414 33.7145 2.80782 35.0681 2.09538C36.4218 1.36513 37.9802 1 39.7435 1ZM39.6367 1.4809C38.6927 1.4809 37.8734 1.82821 37.1788 2.52284C36.4841 3.19966 35.9409 4.14364 35.549 5.35479C35.175 6.56594 34.988 7.96411 34.988 9.54929C34.988 11.1701 35.2017 12.5772 35.6292 13.7705C36.0745 14.9638 36.6622 15.89 37.3925 16.549C38.1227 17.1902 38.9331 17.5108 39.8237 17.5108C40.7677 17.5108 41.587 17.1724 42.2816 16.4956C42.994 15.801 43.5373 14.8481 43.9113 13.6369C44.2853 12.408 44.4724 11.0098 44.4724 9.44242C44.4724 7.80381 44.2497 6.39674 43.8045 5.22121C43.377 4.02787 42.7981 3.11061 42.0679 2.46941C41.3554 1.8104 40.545 1.4809 39.6367 1.4809Z" fill="#E2DBD4"/>
<path d="M50.537 1.37403C50.9467 1.39184 51.481 1.40965 52.14 1.42747C52.8168 1.44528 53.4758 1.45418 54.117 1.45418C55.0076 1.45418 55.8536 1.44528 56.6551 1.42747C57.4566 1.40965 58.0265 1.40075 58.365 1.40075C60.8585 1.40075 62.6663 1.77478 63.7884 2.52284C64.9283 3.27091 65.4983 4.25942 65.4983 5.48838C65.4983 6.0049 65.3825 6.52142 65.1509 7.03793C64.9194 7.55445 64.5276 8.03535 63.9754 8.48063C63.4233 8.90809 62.6663 9.27322 61.7045 9.576C60.7427 9.86098 59.5227 10.0302 58.0444 10.0836L54.9987 10.1905C54.9987 10.1905 54.9987 10.1014 54.9987 9.92332C54.9987 9.74521 54.9987 9.65615 54.9987 9.65615H57.7772C58.739 9.65615 59.4603 9.48695 59.9412 9.14854C60.4399 8.79232 60.7783 8.32033 60.9565 7.73256C61.1346 7.1448 61.2236 6.4947 61.2236 5.78226C61.2236 4.53549 60.9832 3.5826 60.5023 2.92359C60.0392 2.24677 59.211 1.90836 58.0176 1.90836C57.4477 1.90836 57.0737 2.05976 56.8955 2.36254C56.7174 2.66533 56.6284 3.27981 56.6284 4.20598V14.7857C56.6284 15.4269 56.6729 15.9078 56.762 16.2284C56.8688 16.549 57.0648 16.7627 57.3497 16.8696C57.6525 16.9765 58.08 17.0477 58.6321 17.0833V17.6177C58.1334 17.5821 57.4833 17.5642 56.6818 17.5642C55.8981 17.5464 55.0966 17.5375 54.2773 17.5375C53.5293 17.5375 52.8168 17.5464 52.14 17.5642C51.481 17.5642 50.9467 17.5821 50.537 17.6177V17.0833C51.107 17.0477 51.5344 16.9765 51.8194 16.8696C52.1044 16.7627 52.2914 16.549 52.3805 16.2284C52.4873 15.9078 52.5408 15.4269 52.5408 14.7857V4.20598C52.5408 3.54698 52.4873 3.05717 52.3805 2.73657C52.2914 2.41598 52.1044 2.20224 51.8194 2.09538C51.5344 1.98851 51.107 1.92617 50.537 1.90836V1.37403ZM55.7735 9.86989C56.7352 9.90551 57.4655 9.93222 57.9642 9.95004C58.4807 9.96785 58.8904 9.98566 59.1932 10.0035C59.496 10.0035 59.8076 10.0302 60.1282 10.0836C61.286 10.2083 62.2656 10.4755 63.0671 10.8851C63.8686 11.277 64.3851 11.9716 64.6166 12.969L65.1777 15.3468C65.3023 15.8633 65.4537 16.2284 65.6318 16.4422C65.81 16.6381 66.0326 16.736 66.2998 16.736C66.4957 16.736 66.6916 16.6826 66.8875 16.5757C67.1013 16.4511 67.2883 16.3086 67.4486 16.1483L67.8226 16.4956C67.4308 16.9409 66.9677 17.306 66.4333 17.591C65.9168 17.8581 65.2311 17.9917 64.3762 17.9917C63.3075 17.9917 62.506 17.778 61.9717 17.3505C61.4552 16.923 61.1168 16.4154 60.9565 15.8277L60.1817 12.6751C59.9679 11.6243 59.6473 10.9475 59.2199 10.6447C58.8102 10.3419 58.2403 10.1905 57.51 10.1905H55.7735V9.86989Z" fill="#E2DBD4"/>
<path d="M76.3456 1.3206L82.7041 15.3735C83.0069 15.9969 83.2919 16.4332 83.559 16.6826C83.844 16.932 84.1201 17.0655 84.3873 17.0833V17.6177C83.9776 17.5821 83.4522 17.5642 82.811 17.5642C82.1698 17.5464 81.5286 17.5375 80.8874 17.5375C80.0325 17.5375 79.2221 17.5464 78.4562 17.5642C77.7081 17.5642 77.1115 17.5821 76.6662 17.6177V17.0833C77.4677 17.0477 77.9931 16.8785 78.2425 16.5757C78.5096 16.2729 78.4473 15.6941 78.0555 14.8392L73.8075 5.14106L74.3418 4.44643L70.7886 12.5148C70.3967 13.3876 70.1563 14.1178 70.0672 14.7056C69.9781 15.2755 70.0138 15.7297 70.1741 16.0681C70.3344 16.4065 70.6015 16.6559 70.9756 16.8162C71.3496 16.9587 71.8127 17.0477 72.3648 17.0833V17.6177C71.8483 17.5821 71.3407 17.5642 70.842 17.5642C70.3611 17.5464 69.8446 17.5375 69.2924 17.5375C68.954 17.5375 68.5711 17.5464 68.1436 17.5642C67.7162 17.5642 67.3777 17.5821 67.1284 17.6177V17.0833C67.5737 16.9765 67.9744 16.7004 68.3306 16.2551C68.6869 15.792 69.0698 15.1152 69.4794 14.2247L75.1166 1.3206C75.3304 1.33841 75.5352 1.34732 75.7311 1.34732C75.9448 1.34732 76.1497 1.33841 76.3456 1.3206ZM78.2959 11.2591V11.7935H70.8687L71.1359 11.2591H78.2959Z" fill="#E2DBD4"/>
<path d="M107.423 1.37403V1.90836C106.978 2.06866 106.542 2.40707 106.114 2.92359C105.705 3.44011 105.313 4.20598 104.939 5.22121L100.45 17.6711C100.254 17.6533 100.05 17.6444 99.8359 17.6444C99.64 17.6444 99.4351 17.6533 99.2214 17.6711L93.5041 3.61822C93.2547 3.01264 92.9786 2.58518 92.6758 2.33583C92.3731 2.06866 92.0881 1.92617 91.8209 1.90836V1.37403C92.2306 1.39184 92.756 1.40965 93.3972 1.42747C94.0562 1.44528 94.6974 1.45418 95.3208 1.45418C96.1401 1.45418 96.906 1.44528 97.6184 1.42747C98.3487 1.40965 98.9364 1.39184 99.3817 1.37403V1.90836C98.5624 1.94398 98.0459 2.12209 97.8321 2.44269C97.6362 2.74548 97.6897 3.31543 97.9924 4.15255L101.546 13.7171L100.931 14.572L103.496 7.33182C103.995 5.97818 104.253 4.91842 104.271 4.15255C104.289 3.36887 104.111 2.80782 103.736 2.46941C103.362 2.11319 102.846 1.92617 102.187 1.90836V1.37403C102.686 1.39184 103.175 1.40965 103.656 1.42747C104.155 1.44528 104.689 1.45418 105.259 1.45418C105.598 1.45418 105.981 1.44528 106.408 1.42747C106.836 1.40965 107.174 1.39184 107.423 1.37403ZM89.8172 1.37403V1.90836C89.1938 1.94398 88.7841 2.131 88.5882 2.46941C88.3923 2.80782 88.4457 3.36887 88.7485 4.15255L92.5156 13.6102L91.8744 14.4651L95.2941 6.10286L95.7215 6.58375L91.2866 17.6711C91.0729 17.6533 90.8591 17.6444 90.6454 17.6444C90.4495 17.6444 90.2536 17.6533 90.0576 17.6711L84.0998 3.61822C83.8149 2.97702 83.5299 2.54065 83.2449 2.30911C82.9599 2.05976 82.6839 1.92617 82.4167 1.90836V1.37403C82.8442 1.39184 83.3785 1.40965 84.0197 1.42747C84.6609 1.44528 85.2932 1.45418 85.9166 1.45418C86.7003 1.45418 87.4394 1.44528 88.134 1.42747C88.8465 1.40965 89.4075 1.39184 89.8172 1.37403Z" fill="#E2DBD4"/>
<path d="M121.769 1.37403C121.698 1.99742 121.645 2.6119 121.609 3.21747C121.591 3.80523 121.582 4.25942 121.582 4.58001C121.582 4.90061 121.591 5.21231 121.609 5.51509C121.627 5.80007 121.645 6.04052 121.662 6.23644H121.048C120.781 4.65126 120.309 3.54698 119.632 2.92359C118.955 2.3002 118.056 1.98851 116.934 1.98851H115.945C115.518 1.98851 115.179 2.03304 114.93 2.12209C114.698 2.19334 114.529 2.35364 114.422 2.60299C114.315 2.83453 114.262 3.20857 114.262 3.72509V15.2666C114.262 15.7653 114.315 16.1394 114.422 16.3887C114.529 16.6381 114.698 16.8073 114.93 16.8963C115.179 16.9676 115.518 17.0032 115.945 17.0032H117.094C117.913 17.0032 118.626 16.8518 119.231 16.549C119.837 16.2462 120.336 15.7475 120.727 15.0529C121.119 14.3405 121.404 13.3965 121.582 12.2209H122.197C122.143 12.7196 122.117 13.3608 122.117 14.1445C122.117 14.4829 122.126 14.9816 122.143 15.6407C122.179 16.2819 122.232 16.9409 122.304 17.6177C121.431 17.5821 120.451 17.5642 119.365 17.5642C118.278 17.5464 117.308 17.5375 116.453 17.5375C115.883 17.5375 115.117 17.5375 114.155 17.5375C113.211 17.5375 112.205 17.5464 111.136 17.5642C110.085 17.5642 109.097 17.5821 108.171 17.6177V17.0833C108.741 17.0477 109.168 16.9765 109.453 16.8696C109.738 16.7627 109.925 16.549 110.014 16.2284C110.121 15.9078 110.174 15.4269 110.174 14.7857V4.20598C110.174 3.54698 110.121 3.06608 110.014 2.76329C109.925 2.44269 109.738 2.22896 109.453 2.12209C109.168 1.99742 108.741 1.92617 108.171 1.90836V1.37403C109.097 1.39184 110.085 1.40965 111.136 1.42747C112.205 1.44528 113.211 1.45418 114.155 1.45418C115.117 1.45418 115.883 1.45418 116.453 1.45418C117.236 1.45418 118.118 1.45418 119.098 1.45418C120.095 1.43637 120.986 1.40965 121.769 1.37403ZM117.735 9.17526C117.735 9.17526 117.735 9.26431 117.735 9.44242C117.735 9.62053 117.735 9.70959 117.735 9.70959H113.46C113.46 9.70959 113.46 9.62053 113.46 9.44242C113.46 9.26431 113.46 9.17526 113.46 9.17526H117.735ZM118.83 6.28987C118.759 7.10918 118.724 7.75037 118.724 8.21346C118.741 8.67655 118.75 9.0862 118.75 9.44242C118.75 9.79864 118.759 10.2083 118.777 10.6714C118.795 11.1345 118.839 11.7757 118.911 12.595H118.296C118.243 12.0963 118.109 11.6332 117.895 11.2057C117.699 10.7604 117.406 10.4042 117.014 10.1371C116.64 9.85208 116.141 9.70959 115.518 9.70959V9.17526C116.159 9.17526 116.658 9.01496 117.014 8.69436C117.388 8.35595 117.664 7.96411 117.842 7.51883C118.038 7.07356 118.163 6.6639 118.216 6.28987H118.83Z" fill="#E2DBD4"/>
<path d="M124.451 1.37403C124.861 1.39184 125.395 1.40965 126.054 1.42747C126.731 1.44528 127.39 1.45418 128.031 1.45418C128.922 1.45418 129.768 1.44528 130.569 1.42747C131.371 1.40965 131.941 1.40075 132.279 1.40075C134.487 1.40075 136.09 1.72135 137.088 2.36254C138.103 3.00374 138.611 3.9032 138.611 5.06091C138.611 5.93365 138.255 6.69953 137.542 7.35853C136.83 8.01754 135.601 8.53406 133.855 8.90809V8.96152C135.458 9.12182 136.705 9.4157 137.596 9.84317C138.486 10.2706 139.109 10.7782 139.466 11.366C139.822 11.936 140 12.5593 140 13.2362C140 14.5898 139.386 15.6585 138.157 16.4422C136.945 17.2258 135.191 17.6177 132.893 17.6177C132.484 17.6177 131.869 17.6088 131.05 17.591C130.231 17.5553 129.242 17.5375 128.084 17.5375C127.408 17.5375 126.731 17.5464 126.054 17.5642C125.395 17.5642 124.861 17.5821 124.451 17.6177V17.0833C125.021 17.0477 125.448 16.9765 125.733 16.8696C126.018 16.7627 126.205 16.549 126.294 16.2284C126.401 15.9078 126.455 15.4269 126.455 14.7857V4.20598C126.455 3.54698 126.401 3.05717 126.294 2.73657C126.205 2.41598 126.018 2.20224 125.733 2.09538C125.448 1.98851 125.021 1.92617 124.451 1.90836V1.37403ZM131.932 1.90836C131.362 1.90836 130.988 2.05976 130.81 2.36254C130.631 2.66533 130.542 3.27981 130.542 4.20598V14.7857C130.542 15.4091 130.578 15.8811 130.649 16.2017C130.72 16.5223 130.854 16.736 131.05 16.8429C131.264 16.9498 131.566 17.0032 131.958 17.0032C133.294 17.0032 134.256 16.6737 134.844 16.0147C135.431 15.3379 135.725 14.3761 135.725 13.1293C135.725 11.9182 135.423 10.992 134.817 10.3508C134.229 9.69178 133.25 9.36227 131.878 9.36227H129.394C129.394 9.36227 129.394 9.29103 129.394 9.14854C129.394 8.98824 129.394 8.90809 129.394 8.90809H131.424C132.243 8.90809 132.867 8.7567 133.294 8.45391C133.722 8.13331 134.015 7.70585 134.176 7.17152C134.354 6.61938 134.443 6.0138 134.443 5.35479C134.443 4.2327 134.247 3.37777 133.855 2.79001C133.481 2.20224 132.84 1.90836 131.932 1.90836Z" fill="#E2DBD4"/>
<path d="M41.8668 7.44244C41.2911 7.44244 40.7558 7.62413 40.3154 7.93301C40.1375 8.05777 39.9751 8.20328 39.8317 8.36595C39.41 8.84455 39.1534 9.47168 39.1534 10.1558V10.8342C39.1534 11.2073 39.4586 11.5125 39.8317 11.5125C41.1375 11.5125 42.2059 10.4441 42.2059 9.13831V7.78161C42.2059 7.59507 42.0533 7.44244 41.8668 7.44244Z" fill="#E2DBD4"/>
<path d="M37.7967 7.44244C38.3724 7.44244 38.9077 7.62413 39.3481 7.93301C39.526 8.05777 39.6884 8.20328 39.8317 8.36595C40.2535 8.84455 40.5101 9.47168 40.5101 10.1558V10.8342C40.5101 11.2073 40.2048 11.5125 39.8317 11.5125C38.5259 11.5125 37.4575 10.4441 37.4575 9.13831V7.78161C37.4575 7.59507 37.6101 7.44244 37.7967 7.44244Z" fill="#E2DBD4"/>
<path d="M39.9007 15.3217C39.7142 15.3217 39.5615 15.1691 39.5615 14.9826C39.5615 13.6767 40.6299 12.6083 41.9358 12.6083C42.1223 12.6083 42.2749 12.761 42.2749 12.9475C42.2749 14.2533 41.2065 15.3217 39.9007 15.3217Z" fill="#E2DBD4"/>
<path fill-rule="evenodd" clip-rule="evenodd" d="M38.1358 8.79914C38.1358 9.73187 38.899 10.495 39.8317 10.495C40.7645 10.495 41.5276 9.73187 41.5276 8.79914V7.10327C41.5276 6.91672 41.375 6.76409 41.1884 6.76409C40.6685 6.76409 40.1924 6.96171 39.8317 7.28555C39.471 6.96171 38.995 6.76409 38.475 6.76409C38.2885 6.76409 38.1358 6.91672 38.1358 7.10327V8.79914ZM39.8317 7.28555C40.033 7.46622 40.1983 7.68617 40.3154 7.93301C40.1375 8.05777 39.9751 8.20328 39.8317 8.36595C39.6884 8.20328 39.526 8.05777 39.3481 7.93301C39.4651 7.68617 39.6305 7.46622 39.8317 7.28555Z" fill="#E2DBD4"/>
<path d="M40.3154 7.93301C40.1983 7.68617 40.033 7.46622 39.8317 7.28555C39.6305 7.46622 39.4651 7.68617 39.3481 7.93301C39.526 8.05777 39.6884 8.20328 39.8317 8.36595C39.9751 8.20328 40.1375 8.05777 40.3154 7.93301Z" fill="#E2DBD4"/>
<path d="M39.8317 10.495C40.7645 10.495 41.5276 9.73187 41.5276 8.79914V7.10327C41.5276 6.91672 41.375 6.76409 41.1884 6.76409C40.6685 6.76409 40.1924 6.96171 39.8317 7.28555M39.8317 10.495C39.4586 10.495 39.1534 10.1898 39.1534 9.81666V8.79914C39.1534 8.48988 39.2233 8.19617 39.3481 7.93301M39.8317 10.495C38.899 10.495 38.1358 9.73187 38.1358 8.79914V7.10327C38.1358 6.91672 38.2885 6.76409 38.475 6.76409C38.995 6.76409 39.471 6.96171 39.8317 7.28555M39.8317 10.495C40.2048 10.495 40.5101 10.1898 40.5101 9.81666V8.79914C40.5101 8.48988 40.4402 8.19617 40.3154 7.93301M39.8317 11.5125C39.4586 11.5125 39.1534 11.2073 39.1534 10.8342V10.1558C39.1534 9.47168 39.41 8.84455 39.8317 8.36595M39.8317 11.5125C41.1375 11.5125 42.2059 10.4441 42.2059 9.13831V7.78161C42.2059 7.59507 42.0533 7.44244 41.8668 7.44244C41.2911 7.44244 40.7558 7.62413 40.3154 7.93301M39.8317 11.5125C40.2048 11.5125 40.5101 11.2073 40.5101 10.8342V10.1558C40.5101 9.47168 40.2535 8.84455 39.8317 8.36595M39.8317 11.5125C38.5259 11.5125 37.4575 10.4441 37.4575 9.13831V7.78161C37.4575 7.59507 37.6101 7.44244 37.7967 7.44244C38.3724 7.44244 38.9077 7.62413 39.3481 7.93301M39.623 11.356L39.5186 17.5133M39.8317 7.28555C40.033 7.46622 40.1983 7.68617 40.3154 7.93301M39.8317 7.28555C39.6305 7.46622 39.4651 7.68617 39.3481 7.93301M40.3154 7.93301C40.1375 8.05777 39.9751 8.20328 39.8317 8.36595M39.8317 8.36595C39.6884 8.20328 39.526 8.05777 39.3481 7.93301M13.5987 1.37403C13.5275 1.99742 13.474 2.6119 13.4384 3.21747C13.4206 3.80523 13.4117 4.25942 13.4117 4.58001C13.4117 4.90061 13.4206 5.21231 13.4384 5.51509C13.4562 5.80007 13.474 6.04052 13.4918 6.23644H12.8774C12.6102 4.65126 12.1382 3.54698 11.4614 2.92359C10.7846 2.3002 9.88511 1.98851 8.76302 1.98851H7.77451C7.34704 1.98851 7.00863 2.03304 6.75928 2.12209C6.52774 2.19334 6.35853 2.35364 6.25167 2.60299C6.1448 2.83453 6.09137 3.20857 6.09137 3.72509V14.6254C6.09137 15.2844 6.17152 15.792 6.33182 16.1483C6.50993 16.4867 6.80381 16.7182 7.21346 16.8429C7.64092 16.9676 8.21978 17.0477 8.95003 17.0833V17.6177C8.39789 17.5821 7.69436 17.5642 6.83943 17.5642C5.9845 17.5464 5.11176 17.5375 4.22121 17.5375C3.36628 17.5375 2.56479 17.5464 1.81672 17.5642C1.06866 17.5642 0.463086 17.5821 0 17.6177V17.0833C0.569952 17.0477 0.997417 16.9765 1.28239 16.8696C1.56737 16.7627 1.75438 16.549 1.84344 16.2284C1.95031 15.9078 2.00374 15.4269 2.00374 14.7857V4.20598C2.00374 3.54698 1.95031 3.06608 1.84344 2.76329C1.75438 2.44269 1.56737 2.22896 1.28239 2.12209C0.997417 1.99742 0.569952 1.92617 0 1.90836V1.37403C0.926173 1.39184 1.91468 1.40965 2.96553 1.42747C4.03419 1.44528 5.04052 1.45418 5.9845 1.45418C6.9463 1.45418 7.71217 1.45418 8.28212 1.45418C9.06581 1.45418 9.94745 1.45418 10.9271 1.45418C11.9245 1.43637 12.815 1.40965 13.5987 1.37403ZM9.56451 9.17526C9.56451 9.17526 9.56451 9.26431 9.56451 9.44242C9.56451 9.62053 9.56451 9.70959 9.56451 9.70959H5.28987C5.28987 9.70959 5.28987 9.62053 5.28987 9.44242C5.28987 9.26431 5.28987 9.17526 5.28987 9.17526H9.56451ZM10.6599 6.28987C10.5886 7.10918 10.553 7.75038 10.553 8.21346C10.5708 8.67655 10.5797 9.0862 10.5797 9.44242C10.5797 9.79864 10.5886 10.2083 10.6065 10.6714C10.6243 11.1345 10.6688 11.7757 10.74 12.595H10.1256C10.0721 12.0963 9.93855 11.6332 9.72481 11.2057C9.52889 10.7604 9.23501 10.4042 8.84317 10.1371C8.46914 9.85208 7.97043 9.70959 7.34704 9.70959V9.17526C7.98824 9.17526 8.48695 9.01496 8.84317 8.69436C9.2172 8.35595 9.49327 7.96411 9.67138 7.51883C9.8673 7.07356 9.99198 6.6639 10.0454 6.28987H10.6599ZM23.2275 1.37403V1.90836C22.6754 1.92617 22.2479 1.99742 21.9451 2.12209C21.6601 2.22896 21.4642 2.44269 21.3574 2.76329C21.2683 3.06608 21.2238 3.54698 21.2238 4.20598V15.1063C21.2238 15.6585 21.2772 16.0681 21.3841 16.3353C21.4909 16.6025 21.6601 16.7806 21.8917 16.8696C22.141 16.9587 22.4794 17.0032 22.9069 17.0032H23.9489C24.6791 17.0032 25.3559 16.834 25.9793 16.4956C26.6027 16.1394 27.137 15.5694 27.5823 14.7857C28.0454 14.002 28.366 12.9512 28.5441 11.6332H29.1586C29.1051 12.2031 29.0784 12.9334 29.0784 13.8239C29.0784 14.1802 29.0873 14.7145 29.1051 15.4269C29.1408 16.1394 29.1942 16.8696 29.2654 17.6177C28.3927 17.5821 27.4131 17.5642 26.3266 17.5642C25.2402 17.5464 24.2695 17.5375 23.4145 17.5375C22.8446 17.5375 22.0787 17.5375 21.1169 17.5375C20.1729 17.5375 19.1666 17.5464 18.0979 17.5642C17.0471 17.5642 16.0586 17.5821 15.1324 17.6177V17.0833C15.7024 17.0477 16.1298 16.9765 16.4148 16.8696C16.6998 16.7627 16.8868 16.549 16.9758 16.2284C17.0827 15.9078 17.1361 15.4269 17.1361 14.7857V4.20598C17.1361 3.54698 17.0827 3.06608 16.9758 2.76329C16.8868 2.44269 16.6998 2.22896 16.4148 2.12209C16.1298 1.99742 15.7024 1.92617 15.1324 1.90836V1.37403C15.5955 1.39184 16.2011 1.40965 16.9491 1.42747C17.6972 1.44528 18.4987 1.45418 19.3536 1.45418C20.0839 1.45418 20.7963 1.44528 21.4909 1.42747C22.1856 1.40965 22.7644 1.39184 23.2275 1.37403ZM39.7435 1C41.5425 1 43.1187 1.3295 44.4724 1.98851C45.826 2.62971 46.8768 3.57369 47.6249 4.82046C48.373 6.04942 48.747 7.55445 48.747 9.33556C48.747 11.0632 48.3641 12.5772 47.5982 13.8774C46.8323 15.1776 45.7637 16.1928 44.3922 16.923C43.0386 17.6355 41.4801 17.9917 39.7168 17.9917C37.9179 17.9917 36.3416 17.6711 34.988 17.0299C33.6344 16.3709 32.5835 15.418 31.8354 14.1712C31.0874 12.9245 30.7134 11.4194 30.7134 9.65615C30.7134 7.92849 31.0963 6.41455 31.8622 5.11434C32.6458 3.81414 33.7145 2.80782 35.0681 2.09538C36.4218 1.36513 37.9802 1 39.7435 1ZM39.6367 1.4809C38.6927 1.4809 37.8734 1.82821 37.1788 2.52284C36.4841 3.19966 35.9409 4.14364 35.549 5.35479C35.175 6.56594 34.988 7.96411 34.988 9.54929C34.988 11.1701 35.2017 12.5772 35.6292 13.7705C36.0745 14.9638 36.6622 15.89 37.3925 16.549C38.1227 17.1902 38.9331 17.5108 39.8237 17.5108C40.7677 17.5108 41.587 17.1724 42.2816 16.4956C42.994 15.801 43.5373 14.8481 43.9113 13.6369C44.2853 12.408 44.4724 11.0098 44.4724 9.44242C44.4724 7.80381 44.2497 6.39674 43.8044 5.22121C43.377 4.02787 42.7981 3.11061 42.0679 2.46941C41.3554 1.8104 40.545 1.4809 39.6367 1.4809ZM50.537 1.37403C50.9467 1.39184 51.481 1.40965 52.14 1.42747C52.8168 1.44528 53.4758 1.45418 54.117 1.45418C55.0076 1.45418 55.8536 1.44528 56.6551 1.42747C57.4566 1.40965 58.0265 1.40075 58.365 1.40075C60.8585 1.40075 62.6663 1.77478 63.7884 2.52284C64.9283 3.27091 65.4983 4.25942 65.4983 5.48838C65.4983 6.0049 65.3825 6.52142 65.1509 7.03793C64.9194 7.55445 64.5276 8.03535 63.9754 8.48063C63.4233 8.90809 62.6663 9.27322 61.7045 9.576C60.7427 9.86098 59.5227 10.0302 58.0444 10.0836L54.9987 10.1905C54.9987 10.1905 54.9987 10.1014 54.9987 9.92332C54.9987 9.74521 54.9987 9.65615 54.9987 9.65615H57.7772C58.739 9.65615 59.4603 9.48695 59.9412 9.14854C60.4399 8.79232 60.7783 8.32033 60.9565 7.73256C61.1346 7.1448 61.2236 6.4947 61.2236 5.78226C61.2236 4.53549 60.9832 3.5826 60.5023 2.92359C60.0392 2.24677 59.211 1.90836 58.0176 1.90836C57.4477 1.90836 57.0737 2.05976 56.8955 2.36254C56.7174 2.66533 56.6284 3.27981 56.6284 4.20598V14.7857C56.6284 15.4269 56.6729 15.9078 56.762 16.2284C56.8688 16.549 57.0648 16.7627 57.3497 16.8696C57.6525 16.9765 58.08 17.0477 58.6321 17.0833V17.6177C58.1334 17.5821 57.4833 17.5642 56.6818 17.5642C55.8981 17.5464 55.0966 17.5375 54.2773 17.5375C53.5293 17.5375 52.8168 17.5464 52.14 17.5642C51.481 17.5642 50.9467 17.5821 50.537 17.6177V17.0833C51.107 17.0477 51.5344 16.9765 51.8194 16.8696C52.1044 16.7627 52.2914 16.549 52.3805 16.2284C52.4873 15.9078 52.5408 15.4269 52.5408 14.7857V4.20598C52.5408 3.54698 52.4873 3.05717 52.3805 2.73657C52.2914 2.41598 52.1044 2.20224 51.8194 2.09538C51.5344 1.98851 51.107 1.92617 50.537 1.90836V1.37403ZM55.7735 9.86989C56.7352 9.90551 57.4655 9.93222 57.9642 9.95004C58.4807 9.96785 58.8904 9.98566 59.1932 10.0035C59.496 10.0035 59.8076 10.0302 60.1282 10.0836C61.286 10.2083 62.2656 10.4755 63.0671 10.8851C63.8686 11.277 64.3851 11.9716 64.6166 12.969L65.1777 15.3468C65.3023 15.8633 65.4537 16.2284 65.6318 16.4422C65.81 16.6381 66.0326 16.736 66.2998 16.736C66.4957 16.736 66.6916 16.6826 66.8875 16.5757C67.1013 16.4511 67.2883 16.3086 67.4486 16.1483L67.8226 16.4956C67.4308 16.9409 66.9677 17.306 66.4333 17.591C65.9168 17.8581 65.2311 17.9917 64.3762 17.9917C63.3075 17.9917 62.506 17.778 61.9717 17.3505C61.4552 16.923 61.1168 16.4154 60.9565 15.8277L60.1817 12.6751C59.9679 11.6243 59.6473 10.9475 59.2199 10.6447C58.8102 10.3419 58.2403 10.1905 57.51 10.1905H55.7735V9.86989ZM76.3456 1.3206L82.7041 15.3735C83.0069 15.9969 83.2919 16.4332 83.559 16.6826C83.844 16.932 84.1201 17.0655 84.3873 17.0833V17.6177C83.9776 17.5821 83.4522 17.5642 82.811 17.5642C82.1698 17.5464 81.5286 17.5375 80.8874 17.5375C80.0325 17.5375 79.2221 17.5464 78.4562 17.5642C77.7081 17.5642 77.1115 17.5821 76.6662 17.6177V17.0833C77.4677 17.0477 77.9931 16.8785 78.2425 16.5757C78.5096 16.2729 78.4473 15.6941 78.0554 14.8392L73.8075 5.14106L74.3418 4.44643L70.7886 12.5148C70.3967 13.3876 70.1563 14.1178 70.0672 14.7056C69.9782 15.2755 70.0138 15.7297 70.1741 16.0681C70.3344 16.4065 70.6015 16.6559 70.9756 16.8162C71.3496 16.9587 71.8127 17.0477 72.3648 17.0833V17.6177C71.8483 17.5821 71.3407 17.5642 70.842 17.5642C70.3611 17.5464 69.8446 17.5375 69.2924 17.5375C68.954 17.5375 68.5711 17.5464 68.1436 17.5642C67.7162 17.5642 67.3777 17.5821 67.1284 17.6177V17.0833C67.5737 16.9765 67.9744 16.7004 68.3306 16.2551C68.6869 15.792 69.0698 15.1152 69.4794 14.2247L75.1166 1.3206C75.3304 1.33841 75.5352 1.34732 75.7311 1.34732C75.9448 1.34732 76.1497 1.33841 76.3456 1.3206ZM78.2959 11.2591V11.7935H70.8687L71.1359 11.2591H78.2959ZM107.423 1.37403V1.90836C106.978 2.06866 106.542 2.40707 106.114 2.92359C105.705 3.44011 105.313 4.20598 104.939 5.22121L100.45 17.6711C100.254 17.6533 100.05 17.6444 99.8359 17.6444C99.64 17.6444 99.4351 17.6533 99.2214 17.6711L93.5041 3.61822C93.2547 3.01264 92.9786 2.58518 92.6759 2.33583C92.3731 2.06866 92.0881 1.92617 91.8209 1.90836V1.37403C92.2306 1.39184 92.756 1.40965 93.3972 1.42747C94.0562 1.44528 94.6974 1.45418 95.3208 1.45418C96.1401 1.45418 96.906 1.44528 97.6184 1.42747C98.3487 1.40965 98.9364 1.39184 99.3817 1.37403V1.90836C98.5624 1.94398 98.0459 2.12209 97.8321 2.44269C97.6362 2.74548 97.6897 3.31543 97.9924 4.15255L101.546 13.7171L100.931 14.572L103.496 7.33182C103.995 5.97818 104.253 4.91842 104.271 4.15255C104.289 3.36887 104.111 2.80782 103.736 2.46941C103.362 2.11319 102.846 1.92617 102.187 1.90836V1.37403C102.686 1.39184 103.175 1.40965 103.656 1.42747C104.155 1.44528 104.689 1.45418 105.259 1.45418C105.598 1.45418 105.981 1.44528 106.408 1.42747C106.836 1.40965 107.174 1.39184 107.423 1.37403ZM89.8172 1.37403V1.90836C89.1938 1.94398 88.7841 2.131 88.5882 2.46941C88.3923 2.80782 88.4457 3.36887 88.7485 4.15255L92.5156 13.6102L91.8744 14.4651L95.2941 6.10286L95.7215 6.58375L91.2866 17.6711C91.0729 17.6533 90.8591 17.6444 90.6454 17.6444C90.4495 17.6444 90.2536 17.6533 90.0576 17.6711L84.0998 3.61822C83.8149 2.97702 83.5299 2.54065 83.2449 2.30911C82.9599 2.05976 82.6839 1.92617 82.4167 1.90836V1.37403C82.8442 1.39184 83.3785 1.40965 84.0197 1.42747C84.6609 1.44528 85.2932 1.45418 85.9166 1.45418C86.7003 1.45418 87.4394 1.44528 88.134 1.42747C88.8465 1.40965 89.4075 1.39184 89.8172 1.37403ZM121.769 1.37403C121.698 1.99742 121.645 2.6119 121.609 3.21747C121.591 3.80523 121.582 4.25942 121.582 4.58001C121.582 4.90061 121.591 5.21231 121.609 5.51509C121.627 5.80007 121.645 6.04052 121.662 6.23644H121.048C120.781 4.65126 120.309 3.54698 119.632 2.92359C118.955 2.3002 118.056 1.98851 116.934 1.98851H115.945C115.518 1.98851 115.179 2.03304 114.93 2.12209C114.698 2.19334 114.529 2.35364 114.422 2.60299C114.315 2.83453 114.262 3.20857 114.262 3.72509V15.2666C114.262 15.7653 114.315 16.1394 114.422 16.3887C114.529 16.6381 114.698 16.8073 114.93 16.8963C115.179 16.9676 115.518 17.0032 115.945 17.0032H117.094C117.913 17.0032 118.626 16.8518 119.231 16.549C119.837 16.2462 120.336 15.7475 120.727 15.0529C121.119 14.3405 121.404 13.3965 121.582 12.2209H122.197C122.143 12.7196 122.117 13.3608 122.117 14.1445C122.117 14.4829 122.126 14.9816 122.143 15.6407C122.179 16.2819 122.232 16.9409 122.304 17.6177C121.431 17.5821 120.451 17.5642 119.365 17.5642C118.278 17.5464 117.308 17.5375 116.453 17.5375C115.883 17.5375 115.117 17.5375 114.155 17.5375C113.211 17.5375 112.205 17.5464 111.136 17.5642C110.085 17.5642 109.097 17.5821 108.171 17.6177V17.0833C108.741 17.0477 109.168 16.9765 109.453 16.8696C109.738 16.7627 109.925 16.549 110.014 16.2284C110.121 15.9078 110.174 15.4269 110.174 14.7857V4.20598C110.174 3.54698 110.121 3.06608 110.014 2.76329C109.925 2.44269 109.738 2.22896 109.453 2.12209C109.168 1.99742 108.741 1.92617 108.171 1.90836V1.37403C109.097 1.39184 110.085 1.40965 111.136 1.42747C112.205 1.44528 113.211 1.45418 114.155 1.45418C115.117 1.45418 115.883 1.45418 116.453 1.45418C117.236 1.45418 118.118 1.45418 119.098 1.45418C120.095 1.43637 120.986 1.40965 121.769 1.37403ZM117.735 9.17526C117.735 9.17526 117.735 9.26431 117.735 9.44242C117.735 9.62053 117.735 9.70959 117.735 9.70959H113.46C113.46 9.70959 113.46 9.62053 113.46 9.44242C113.46 9.26431 113.46 9.17526 113.46 9.17526H117.735ZM118.83 6.28987C118.759 7.10918 118.724 7.75038 118.724 8.21346C118.741 8.67655 118.75 9.0862 118.75 9.44242C118.75 9.79864 118.759 10.2083 118.777 10.6714C118.795 11.1345 118.839 11.7757 118.911 12.595H118.296C118.243 12.0963 118.109 11.6332 117.895 11.2057C117.699 10.7604 117.406 10.4042 117.014 10.1371C116.64 9.85208 116.141 9.70959 115.518 9.70959V9.17526C116.159 9.17526 116.658 9.01496 117.014 8.69436C117.388 8.35595 117.664 7.96411 117.842 7.51883C118.038 7.07356 118.163 6.6639 118.216 6.28987H118.83ZM124.451 1.37403C124.861 1.39184 125.395 1.40965 126.054 1.42747C126.731 1.44528 127.39 1.45418 128.031 1.45418C128.922 1.45418 129.768 1.44528 130.569 1.42747C131.371 1.40965 131.941 1.40075 132.279 1.40075C134.487 1.40075 136.09 1.72135 137.088 2.36254C138.103 3.00374 138.611 3.9032 138.611 5.06091C138.611 5.93365 138.255 6.69953 137.542 7.35853C136.83 8.01754 135.601 8.53406 133.855 8.90809V8.96152C135.458 9.12182 136.705 9.4157 137.596 9.84317C138.486 10.2706 139.109 10.7782 139.466 11.366C139.822 11.936 140 12.5593 140 13.2362C140 14.5898 139.386 15.6585 138.157 16.4422C136.945 17.2258 135.191 17.6177 132.893 17.6177C132.484 17.6177 131.869 17.6088 131.05 17.591C130.231 17.5553 129.242 17.5375 128.084 17.5375C127.408 17.5375 126.731 17.5464 126.054 17.5642C125.395 17.5642 124.861 17.5821 124.451 17.6177V17.0833C125.021 17.0477 125.448 16.9765 125.733 16.8696C126.018 16.7627 126.205 16.549 126.294 16.2284C126.401 15.9078 126.455 15.4269 126.455 14.7857V4.20598C126.455 3.54698 126.401 3.05717 126.294 2.73657C126.205 2.41598 126.018 2.20224 125.733 2.09538C125.448 1.98851 125.021 1.92617 124.451 1.90836V1.37403ZM131.932 1.90836C131.362 1.90836 130.988 2.05976 130.81 2.36254C130.631 2.66533 130.542 3.27981 130.542 4.20598V14.7857C130.542 15.4091 130.578 15.8811 130.649 16.2017C130.72 16.5223 130.854 16.736 131.05 16.8429C131.264 16.9498 131.566 17.0032 131.958 17.0032C133.294 17.0032 134.256 16.6737 134.844 16.0147C135.431 15.3379 135.725 14.3761 135.725 13.1293C135.725 11.9182 135.423 10.992 134.817 10.3508C134.229 9.69178 133.25 9.36227 131.878 9.36227H129.394C129.394 9.36227 129.394 9.29103 129.394 9.14854C129.394 8.98824 129.394 8.90809 129.394 8.90809H131.424C132.243 8.90809 132.867 8.7567 133.294 8.45391C133.722 8.13331 134.015 7.70585 134.176 7.17152C134.354 6.61938 134.443 6.0138 134.443 5.35479C134.443 4.2327 134.247 3.37777 133.855 2.79001C133.481 2.20224 132.84 1.90836 131.932 1.90836ZM39.9007 15.3217C39.7142 15.3217 39.5615 15.1691 39.5615 14.9826C39.5615 13.6767 40.6299 12.6083 41.9358 12.6083C42.1223 12.6083 42.2749 12.761 42.2749 12.9475C42.2749 14.2533 41.2065 15.3217 39.9007 15.3217Z" stroke="#E2DBD4" stroke-width="0.5"/>
</svg>
