<svg width="18" height="13" viewBox="0 0 18 13" fill="none" xmlns="http://www.w3.org/2000/svg">
<path d="M3.58498 3.87092V6.9876M12.1663 3.87113V6.98782M14.475 3.60175V7.24968C14.475 9.43135 13.155 10.3663 11.175 10.3663H4.58247C4.24497 10.3663 3.92247 10.338 3.62247 10.2743C3.43497 10.2459 3.25497 10.1964 3.08997 10.1397C1.96497 9.74303 1.28247 8.82218 1.28247 7.24968V3.60175C1.28247 1.42008 2.60247 0.485107 4.58247 0.485107H11.175C12.855 0.485107 14.0625 1.15802 14.385 2.6951C14.4375 2.97844 14.475 3.26883 14.475 3.60175ZM16.7258 5.72683V9.37477C16.7258 11.5564 15.4058 12.4914 13.4258 12.4914H6.83329C6.27829 12.4914 5.7758 12.4206 5.3408 12.2648C4.4483 11.9531 3.84079 11.3085 3.62329 10.2744C3.92329 10.3381 4.24579 10.3664 4.58329 10.3664H11.1758C13.1558 10.3664 14.4758 9.43143 14.4758 7.24977V3.60183C14.4758 3.26892 14.4458 2.97144 14.3858 2.69519C15.8108 2.97852 16.7258 3.92767 16.7258 5.72683ZM9.85382 5.42917C9.85382 6.46195 8.96733 7.29918 7.87381 7.29918C6.78029 7.29918 5.8938 6.46195 5.8938 5.42917C5.8938 4.3964 6.78029 3.55916 7.87381 3.55916C8.96733 3.55916 9.85382 4.3964 9.85382 5.42917Z" stroke="#E2DBD4" stroke-width="0.7" stroke-miterlimit="10" stroke-linecap="round" stroke-linejoin="round"/>
</svg>
