<svg width="17" height="17" viewBox="0 0 17 17" fill="none" xmlns="http://www.w3.org/2000/svg">
<path d="M4.21947 4.5655L1.4741 7.24411C0.667059 8.03152 0.670106 9.33006 1.48083 10.1137L4.33745 12.8748M4.21947 4.5655L7.47811 1.3861C8.26446 0.618878 9.52245 0.629574 10.2956 1.41006L13.32 4.4629M4.21947 4.5655C5.2473 4.30061 8.466 8.11436 8.89876 8.11436C9.33153 8.11436 13.4419 4.11087 13.32 4.4629M13.32 4.4629L16.099 7.26818C16.8738 8.05028 16.8709 9.31149 16.0924 10.09L13.1994 12.983M4.33745 12.8748L4.48995 13.0222L7.48496 15.917C8.26964 16.6755 9.51746 16.6649 10.2891 15.8932L13.1994 12.983M4.33745 12.8748C6.95068 12.13 8.00618 9.41265 8.89876 9.41265C9.79134 9.41265 11.9062 12.6104 13.1994 12.983" stroke="#E2DBD4" stroke-width="0.6"/>
</svg>
