<svg width="194" height="387" viewBox="0 0 194 387" fill="none" xmlns="http://www.w3.org/2000/svg">
<path d="M89.5517 141.095C121.983 141.095 148.517 113.667 148.517 80.1429V19.1905C148.517 12.4857 143.21 7 136.724 7C97.8069 7 65.9655 39.9143 65.9655 80.1429V116.714C65.9655 130.124 76.5793 141.095 89.5517 141.095Z" fill="#2B0F39"/>
<path d="M89.5517 141.095C57.1207 141.095 30.5862 113.667 30.5862 80.1429V19.1905C30.5862 12.4857 35.8931 7 42.3793 7C81.2966 7 113.138 39.9143 113.138 80.1429V116.714C113.138 130.124 102.524 141.095 89.5517 141.095Z" fill="#2B0F39"/>
<path d="M160.31 31.381C108.421 31.381 65.9655 75.2667 65.9655 128.905V153.286C65.9655 166.695 76.5793 177.667 89.5517 177.667C134.955 177.667 172.103 139.267 172.103 92.3333V43.5714C172.103 36.8667 166.797 31.381 160.31 31.381Z" fill="#2B0F39"/>
<path d="M18.7931 31.381C70.6828 31.381 113.138 75.2667 113.138 128.905V153.286C113.138 166.695 102.524 177.667 89.5517 177.667C44.1483 177.667 7 139.267 7 92.3333V43.5714C7 36.8667 12.3069 31.381 18.7931 31.381Z" fill="#2B0F39"/>
<path d="M103.5 311.356C97.0138 311.356 91.7069 305.871 91.7069 299.166C91.7069 252.232 128.855 213.832 174.259 213.832C180.745 213.832 186.052 219.318 186.052 226.023C186.052 272.956 148.903 311.356 103.5 311.356Z" fill="#2B0F39"/>
<path d="M89.5517 141.095C121.983 141.095 148.517 113.667 148.517 80.1429V19.1905C148.517 12.4857 143.21 7 136.724 7C97.8069 7 65.9655 39.9143 65.9655 80.1429V116.714C65.9655 130.124 76.5793 141.095 89.5517 141.095ZM89.5517 141.095C57.1207 141.095 30.5862 113.667 30.5862 80.1429V19.1905C30.5862 12.4857 35.8931 7 42.3793 7C81.2966 7 113.138 39.9143 113.138 80.1429V116.714C113.138 130.124 102.524 141.095 89.5517 141.095ZM89.5517 177.667C76.5793 177.667 65.9655 166.695 65.9655 153.286V128.905C65.9655 75.2667 108.421 31.381 160.31 31.381C166.797 31.381 172.103 36.8667 172.103 43.5714V92.3333C172.103 139.267 134.955 177.667 89.5517 177.667ZM89.5517 177.667C102.524 177.667 113.138 166.695 113.138 153.286V128.905C113.138 75.2667 70.6828 31.381 18.7931 31.381C12.3069 31.381 7 36.8667 7 43.5714V92.3333C7 139.267 44.1483 177.667 89.5517 177.667ZM89.5517 174.619V391M103.5 311.356C97.0138 311.356 91.7069 305.871 91.7069 299.166C91.7069 252.232 128.855 213.832 174.259 213.832C180.745 213.832 186.052 219.318 186.052 226.023C186.052 272.956 148.903 311.356 103.5 311.356Z" stroke="#2B0F39" stroke-width="14"/>
</svg>
