<svg width="30" height="29" viewBox="0 0 30 29" fill="none" xmlns="http://www.w3.org/2000/svg">
<path d="M22.7928 27.8166C15.5767 25.7983 3.97569 15.5667 1.82039 7.15044C1.52249 5.98718 2.00222 4.80055 2.86796 3.96844L4.16523 2.72154C5.73735 1.21048 8.23008 1.23699 9.7697 2.78116L11.4371 4.45345C12.6087 5.62853 12.6411 7.5198 11.5105 8.73437C10.7685 9.5314 10.4789 10.671 10.8825 11.6824C12.2052 14.9976 14.228 16.7765 17.7701 18.772C18.9672 19.4464 20.4611 19.2293 21.4633 18.2895C22.7085 17.1218 24.646 17.1201 25.8932 18.2856L27.3661 19.662C29.0604 21.2452 29.0576 23.9329 27.3601 25.5127L25.8292 26.9374C25.0016 27.7076 23.8815 28.1211 22.7928 27.8166Z" stroke="#481B68" stroke-width="2"/>
</svg>
