<svg width="17" height="15" viewBox="0 0 17 15" fill="none" xmlns="http://www.w3.org/2000/svg">
<path d="M16.2917 1.12504C15.6134 1.60351 14.8624 1.96945 14.0675 2.20879C13.6409 1.71828 13.074 1.37062 12.4434 1.21282C11.8127 1.05503 11.1489 1.09472 10.5415 1.32653C9.93418 1.55834 9.41269 1.97108 9.04757 2.50893C8.68245 3.04677 8.49133 3.68378 8.50004 4.33379V5.04213C7.25524 5.0744 6.02178 4.79833 4.90951 4.23848C3.79723 3.67864 2.84068 2.85241 2.12504 1.83338C2.12504 1.83338 -0.708293 8.20838 5.66671 11.0417C4.20791 12.0319 2.47011 12.5285 0.708374 12.4584C7.08337 16 14.875 12.4584 14.875 4.31254C14.8744 4.11524 14.8554 3.91842 14.8184 3.72463C15.5413 3.01168 16.0515 2.11155 16.2917 1.12504Z" stroke="#E2DBD4" stroke-width="1.3" stroke-linecap="round" stroke-linejoin="round"/>
</svg>
